<svg xmlns="http://www.w3.org/2000/svg" xmlns:xlink="http://www.w3.org/1999/xlink" zoomAndPan="magnify" viewBox="0 0 375 374.999991" preserveAspectRatio="xMidYMid meet" version="1.0"><defs><clipPath id="f5fe552ad6"><path d="M 64.542969 22.351562 L 310.457031 22.351562 L 310.457031 268.265625 L 64.542969 268.265625 Z M 64.542969 22.351562 " clip-rule="nonzero"/></clipPath><clipPath id="b1f15fdef9"><path d="M 187.5 22.351562 C 119.59375 22.351562 64.542969 77.402344 64.542969 145.308594 C 64.542969 213.214844 119.59375 268.265625 187.5 268.265625 C 255.40625 268.265625 310.457031 213.214844 310.457031 145.308594 C 310.457031 77.402344 255.40625 22.351562 187.5 22.351562 Z M 187.5 22.351562 " clip-rule="nonzero"/></clipPath><clipPath id="c59d0bb3c5"><path d="M 55.347656 109.859375 L 73.738281 109.859375 L 73.738281 128.253906 L 55.347656 128.253906 Z M 55.347656 109.859375 " clip-rule="nonzero"/></clipPath><clipPath id="5493982ebb"><path d="M 64.542969 109.859375 C 59.464844 109.859375 55.347656 113.980469 55.347656 119.058594 C 55.347656 124.136719 59.464844 128.253906 64.542969 128.253906 C 69.621094 128.253906 73.742188 124.136719 73.742188 119.058594 C 73.742188 113.980469 69.621094 109.859375 64.542969 109.859375 Z M 64.542969 109.859375 " clip-rule="nonzero"/></clipPath><clipPath id="fcc715ef28"><path d="M 78.605469 63.574219 L 97 63.574219 L 97 81.96875 L 78.605469 81.96875 Z M 78.605469 63.574219 " clip-rule="nonzero"/></clipPath><clipPath id="da0fb90dcc"><path d="M 87.804688 63.574219 C 82.722656 63.574219 78.605469 67.691406 78.605469 72.769531 C 78.605469 77.851562 82.722656 81.96875 87.804688 81.96875 C 92.882812 81.96875 97 77.851562 97 72.769531 C 97 67.691406 92.882812 63.574219 87.804688 63.574219 Z M 87.804688 63.574219 " clip-rule="nonzero"/></clipPath><clipPath id="9421a003c9"><path d="M 111.722656 30.457031 L 130.117188 30.457031 L 130.117188 48.847656 L 111.722656 48.847656 Z M 111.722656 30.457031 " clip-rule="nonzero"/></clipPath><clipPath id="eac0c4ab3f"><path d="M 120.921875 30.457031 C 115.84375 30.457031 111.722656 34.574219 111.722656 39.652344 C 111.722656 44.730469 115.84375 48.847656 120.921875 48.847656 C 126 48.847656 130.117188 44.730469 130.117188 39.652344 C 130.117188 34.574219 126 30.457031 120.921875 30.457031 Z M 120.921875 30.457031 " clip-rule="nonzero"/></clipPath><clipPath id="834d0db726"><path d="M 170.585938 10.570312 L 188.484375 10.570312 L 188.484375 28.46875 L 170.585938 28.46875 Z M 170.585938 10.570312 " clip-rule="nonzero"/></clipPath><clipPath id="47ea7cbeb7"><path d="M 179.535156 10.570312 C 174.59375 10.570312 170.585938 14.578125 170.585938 19.519531 C 170.585938 24.460938 174.59375 28.46875 179.535156 28.46875 C 184.476562 28.46875 188.484375 24.460938 188.484375 19.519531 C 188.484375 14.578125 184.476562 10.570312 179.535156 10.570312 Z M 179.535156 10.570312 " clip-rule="nonzero"/></clipPath><clipPath id="edebe2c9f7"><path d="M 231.28125 16.378906 L 248.84375 16.378906 L 248.84375 34.976562 L 231.28125 34.976562 Z M 231.28125 16.378906 " clip-rule="nonzero"/></clipPath><clipPath id="43fbbb5a0d"><path d="M 240.0625 16.378906 C 235.210938 16.378906 231.28125 20.535156 231.28125 25.660156 C 231.28125 30.785156 235.210938 34.941406 240.0625 34.941406 C 244.914062 34.941406 248.84375 30.785156 248.84375 25.660156 C 248.84375 20.535156 244.914062 16.378906 240.0625 16.378906 Z M 240.0625 16.378906 " clip-rule="nonzero"/></clipPath><clipPath id="95e0225667"><path d="M 278 52 L 296 52 L 296 68 L 278 68 Z M 278 52 " clip-rule="nonzero"/></clipPath><clipPath id="0d5feb5790"><path d="M 275.484375 61.554688 L 289.71875 48.824219 L 298.226562 58.335938 L 283.996094 71.066406 Z M 275.484375 61.554688 " clip-rule="nonzero"/></clipPath><clipPath id="0472c69cdd"><path d="M 282.585938 55.203125 C 278.664062 58.710938 277.390625 63.683594 279.742188 66.308594 C 282.089844 68.9375 287.175781 68.222656 291.097656 64.714844 C 295.019531 61.207031 296.292969 56.230469 293.941406 53.605469 C 291.59375 50.976562 286.507812 51.691406 282.585938 55.203125 Z M 282.585938 55.203125 " clip-rule="nonzero"/></clipPath><clipPath id="bc4548d359"><path d="M 302.335938 106.128906 L 318.578125 106.128906 L 318.578125 122.371094 L 302.335938 122.371094 Z M 302.335938 106.128906 " clip-rule="nonzero"/></clipPath><clipPath id="69f33a60af"><path d="M 310.457031 106.128906 C 305.972656 106.128906 302.335938 109.765625 302.335938 114.25 C 302.335938 118.734375 305.972656 122.371094 310.457031 122.371094 C 314.941406 122.371094 318.578125 118.734375 318.578125 114.25 C 318.578125 109.765625 314.941406 106.128906 310.457031 106.128906 Z M 310.457031 106.128906 " clip-rule="nonzero"/></clipPath><clipPath id="3e1287e00b"><path d="M 302.335938 160.609375 L 322.738281 160.609375 L 322.738281 177.679688 L 302.335938 177.679688 Z M 302.335938 160.609375 " clip-rule="nonzero"/></clipPath><clipPath id="beb852ec52"><path d="M 312.527344 160.609375 C 306.898438 160.609375 302.335938 164.429688 302.335938 169.144531 C 302.335938 173.855469 306.898438 177.679688 312.527344 177.679688 C 318.15625 177.679688 322.714844 173.855469 322.714844 169.144531 C 322.714844 164.429688 318.15625 160.609375 312.527344 160.609375 Z M 312.527344 160.609375 " clip-rule="nonzero"/></clipPath><clipPath id="d71b59d392"><path d="M 85.816406 221.378906 L 99.738281 221.378906 L 99.738281 235.304688 L 85.816406 235.304688 Z M 85.816406 221.378906 " clip-rule="nonzero"/></clipPath><clipPath id="41784c7529"><path d="M 92.777344 221.378906 C 88.933594 221.378906 85.816406 224.496094 85.816406 228.339844 C 85.816406 232.1875 88.933594 235.304688 92.777344 235.304688 C 96.621094 235.304688 99.738281 232.1875 99.738281 228.339844 C 99.738281 224.496094 96.621094 221.378906 92.777344 221.378906 Z M 92.777344 221.378906 " clip-rule="nonzero"/></clipPath><clipPath id="dc3d4e77e9"><path d="M 58.316406 167.144531 L 72.242188 167.144531 L 72.242188 181.066406 L 58.316406 181.066406 Z M 58.316406 167.144531 " clip-rule="nonzero"/></clipPath><clipPath id="023fc7f7e5"><path d="M 65.277344 167.144531 C 61.433594 167.144531 58.316406 170.261719 58.316406 174.105469 C 58.316406 177.949219 61.433594 181.066406 65.277344 181.066406 C 69.125 181.066406 72.242188 177.949219 72.242188 174.105469 C 72.242188 170.261719 69.125 167.144531 65.277344 167.144531 Z M 65.277344 167.144531 " clip-rule="nonzero"/></clipPath><clipPath id="ea902fa5ff"><path d="M 137.890625 258.550781 L 151.8125 258.550781 L 151.8125 272.472656 L 137.890625 272.472656 Z M 137.890625 258.550781 " clip-rule="nonzero"/></clipPath><clipPath id="d910ba8e61"><path d="M 144.851562 258.550781 C 141.003906 258.550781 137.890625 261.667969 137.890625 265.511719 C 137.890625 269.355469 141.003906 272.472656 144.851562 272.472656 C 148.695312 272.472656 151.8125 269.355469 151.8125 265.511719 C 151.8125 261.667969 148.695312 258.550781 144.851562 258.550781 Z M 144.851562 258.550781 " clip-rule="nonzero"/></clipPath><clipPath id="e3b7544fa7"><path d="M 221.675781 258.550781 L 235.601562 258.550781 L 235.601562 272.472656 L 221.675781 272.472656 Z M 221.675781 258.550781 " clip-rule="nonzero"/></clipPath><clipPath id="c476c85fc2"><path d="M 228.636719 258.550781 C 224.792969 258.550781 221.675781 261.667969 221.675781 265.511719 C 221.675781 269.355469 224.792969 272.472656 228.636719 272.472656 C 232.484375 272.472656 235.601562 269.355469 235.601562 265.511719 C 235.601562 261.667969 232.484375 258.550781 228.636719 258.550781 Z M 228.636719 258.550781 " clip-rule="nonzero"/></clipPath><clipPath id="bb7f9f5469"><path d="M 274 222 L 291 222 L 291 240 L 274 240 Z M 274 222 " clip-rule="nonzero"/></clipPath><clipPath id="c0c9ad53ab"><path d="M 271.347656 227.289062 L 282.582031 219.058594 L 293.574219 234.0625 L 282.34375 242.292969 Z M 271.347656 227.289062 " clip-rule="nonzero"/></clipPath><clipPath id="3c1b5f0cb7"><path d="M 276.964844 223.171875 C 273.863281 225.445312 273.804688 230.640625 276.832031 234.773438 C 279.863281 238.90625 284.832031 240.417969 287.933594 238.144531 C 291.035156 235.871094 291.09375 230.679688 288.066406 226.542969 C 285.035156 222.410156 280.066406 220.902344 276.964844 223.171875 Z M 276.964844 223.171875 " clip-rule="nonzero"/></clipPath><clipPath id="da52d75afd"><path d="M 115.914062 67.695312 L 267.070312 67.695312 L 267.070312 218.851562 L 115.914062 218.851562 Z M 115.914062 67.695312 " clip-rule="nonzero"/></clipPath><clipPath id="ee629e393b"><path d="M 191.492188 67.695312 C 149.75 67.695312 115.914062 101.535156 115.914062 143.273438 C 115.914062 185.015625 149.75 218.851562 191.492188 218.851562 C 233.230469 218.851562 267.070312 185.015625 267.070312 143.273438 C 267.070312 101.535156 233.230469 67.695312 191.492188 67.695312 Z M 191.492188 67.695312 " clip-rule="nonzero"/></clipPath><clipPath id="a36ae6ee79"><path d="M 134.976562 83.097656 L 149.246094 83.097656 L 149.246094 97.367188 L 134.976562 97.367188 Z M 134.976562 83.097656 " clip-rule="nonzero"/></clipPath><clipPath id="cc1ddf1ebb"><path d="M 142.113281 83.097656 C 138.171875 83.097656 134.976562 86.292969 134.976562 90.230469 C 134.976562 94.171875 138.171875 97.367188 142.113281 97.367188 C 146.050781 97.367188 149.246094 94.171875 149.246094 90.230469 C 149.246094 86.292969 146.050781 83.097656 142.113281 83.097656 Z M 142.113281 83.097656 " clip-rule="nonzero"/></clipPath><clipPath id="1df89e70fb"><path d="M 174.40625 261.019531 L 198.671875 261.019531 L 198.671875 375 L 174.40625 375 Z M 174.40625 261.019531 " clip-rule="nonzero"/></clipPath><clipPath id="af1bad400e"><path d="M 186.539062 261.019531 C 179.835938 261.019531 174.40625 289.722656 174.40625 325.128906 C 174.40625 360.539062 179.835938 389.242188 186.539062 389.242188 C 193.242188 389.242188 198.671875 360.539062 198.671875 325.128906 C 198.671875 289.722656 193.242188 261.019531 186.539062 261.019531 Z M 186.539062 261.019531 " clip-rule="nonzero"/></clipPath><clipPath id="7ff417368e"><path d="M 127.84375 184.699219 L 142.113281 184.699219 L 142.113281 198.96875 L 127.84375 198.96875 Z M 127.84375 184.699219 " clip-rule="nonzero"/></clipPath><clipPath id="c7a2d6fd4e"><path d="M 134.976562 184.699219 C 131.035156 184.699219 127.84375 187.894531 127.84375 191.832031 C 127.84375 195.773438 131.035156 198.96875 134.976562 198.96875 C 138.917969 198.96875 142.113281 195.773438 142.113281 191.832031 C 142.113281 187.894531 138.917969 184.699219 134.976562 184.699219 Z M 134.976562 184.699219 " clip-rule="nonzero"/></clipPath><clipPath id="8e57126db5"><path d="M 160.136719 201.601562 L 174.40625 201.601562 L 174.40625 215.871094 L 160.136719 215.871094 Z M 160.136719 201.601562 " clip-rule="nonzero"/></clipPath><clipPath id="0f3be59e3e"><path d="M 167.269531 201.601562 C 163.328125 201.601562 160.136719 204.796875 160.136719 208.734375 C 160.136719 212.675781 163.328125 215.871094 167.269531 215.871094 C 171.210938 215.871094 174.40625 212.675781 174.40625 208.734375 C 174.40625 204.796875 171.210938 201.601562 167.269531 201.601562 Z M 167.269531 201.601562 " clip-rule="nonzero"/></clipPath><clipPath id="f960e56e55"><path d="M 198.671875 208.734375 L 212.941406 208.734375 L 212.941406 223.003906 L 198.671875 223.003906 Z M 198.671875 208.734375 " clip-rule="nonzero"/></clipPath><clipPath id="9b4bb38446"><path d="M 205.808594 208.734375 C 201.867188 208.734375 198.671875 211.929688 198.671875 215.871094 C 198.671875 219.8125 201.867188 223.003906 205.808594 223.003906 C 209.75 223.003906 212.941406 219.8125 212.941406 215.871094 C 212.941406 211.929688 209.75 208.734375 205.808594 208.734375 Z M 205.808594 208.734375 " clip-rule="nonzero"/></clipPath><clipPath id="91b8cd99b1"><path d="M 235.792969 191.832031 L 250.0625 191.832031 L 250.0625 206.101562 L 235.792969 206.101562 Z M 235.792969 191.832031 " clip-rule="nonzero"/></clipPath><clipPath id="a7af8bb7bb"><path d="M 242.925781 191.832031 C 238.988281 191.832031 235.792969 195.027344 235.792969 198.96875 C 235.792969 202.910156 238.988281 206.101562 242.925781 206.101562 C 246.867188 206.101562 250.0625 202.910156 250.0625 198.96875 C 250.0625 195.027344 246.867188 191.832031 242.925781 191.832031 Z M 242.925781 191.832031 " clip-rule="nonzero"/></clipPath><clipPath id="92c1370c23"><path d="M 252.800781 156.425781 L 267.070312 156.425781 L 267.070312 170.695312 L 252.800781 170.695312 Z M 252.800781 156.425781 " clip-rule="nonzero"/></clipPath><clipPath id="187beaab34"><path d="M 259.933594 156.425781 C 255.992188 156.425781 252.800781 159.621094 252.800781 163.5625 C 252.800781 167.503906 255.992188 170.695312 259.933594 170.695312 C 263.875 170.695312 267.070312 167.503906 267.070312 163.5625 C 267.070312 159.621094 263.875 156.425781 259.933594 156.425781 Z M 259.933594 156.425781 " clip-rule="nonzero"/></clipPath><clipPath id="e6378b4606"><path d="M 252.800781 125.5 L 268.820312 125.5 L 268.820312 141.523438 L 252.800781 141.523438 Z M 252.800781 125.5 " clip-rule="nonzero"/></clipPath><clipPath id="4d849c6c34"><path d="M 260.808594 125.5 C 256.386719 125.5 252.800781 129.089844 252.800781 133.511719 C 252.800781 137.9375 256.386719 141.523438 260.808594 141.523438 C 265.234375 141.523438 268.820312 137.9375 268.820312 133.511719 C 268.820312 129.089844 265.234375 125.5 260.808594 125.5 Z M 260.808594 125.5 " clip-rule="nonzero"/></clipPath><clipPath id="5bb0324a34"><path d="M 240.695312 90.230469 L 254.964844 90.230469 L 254.964844 104.5 L 240.695312 104.5 Z M 240.695312 90.230469 " clip-rule="nonzero"/></clipPath><clipPath id="702197c713"><path d="M 247.828125 90.230469 C 243.890625 90.230469 240.695312 93.425781 240.695312 97.367188 C 240.695312 101.308594 243.890625 104.5 247.828125 104.5 C 251.769531 104.5 254.964844 101.308594 254.964844 97.367188 C 254.964844 93.425781 251.769531 90.230469 247.828125 90.230469 Z M 247.828125 90.230469 " clip-rule="nonzero"/></clipPath><clipPath id="d434fad9c7"><path d="M 111.128906 152.925781 L 125.398438 152.925781 L 125.398438 167.195312 L 111.128906 167.195312 Z M 111.128906 152.925781 " clip-rule="nonzero"/></clipPath><clipPath id="e141cb19bd"><path d="M 118.261719 152.925781 C 114.320312 152.925781 111.128906 156.121094 111.128906 160.058594 C 111.128906 164 114.320312 167.195312 118.261719 167.195312 C 122.203125 167.195312 125.398438 164 125.398438 160.058594 C 125.398438 156.121094 122.203125 152.925781 118.261719 152.925781 Z M 118.261719 152.925781 " clip-rule="nonzero"/></clipPath><clipPath id="f126704c6f"><path d="M 111.128906 119.242188 L 125.398438 119.242188 L 125.398438 133.511719 L 111.128906 133.511719 Z M 111.128906 119.242188 " clip-rule="nonzero"/></clipPath><clipPath id="40af9d8026"><path d="M 118.261719 119.242188 C 114.320312 119.242188 111.128906 122.4375 111.128906 126.378906 C 111.128906 130.316406 114.320312 133.511719 118.261719 133.511719 C 122.203125 133.511719 125.398438 130.316406 125.398438 126.378906 C 125.398438 122.4375 122.203125 119.242188 118.261719 119.242188 Z M 118.261719 119.242188 " clip-rule="nonzero"/></clipPath><clipPath id="8ba38037c8"><path d="M 215.132812 67.695312 L 229.402344 67.695312 L 229.402344 81.964844 L 215.132812 81.964844 Z M 215.132812 67.695312 " clip-rule="nonzero"/></clipPath><clipPath id="c610eb936c"><path d="M 222.265625 67.695312 C 218.324219 67.695312 215.132812 70.890625 215.132812 74.832031 C 215.132812 78.773438 218.324219 81.964844 222.265625 81.964844 C 226.207031 81.964844 229.402344 78.773438 229.402344 74.832031 C 229.402344 70.890625 226.207031 67.695312 222.265625 67.695312 Z M 222.265625 67.695312 " clip-rule="nonzero"/></clipPath><clipPath id="a16180f63c"><path d="M 174.40625 60.5625 L 188.675781 60.5625 L 188.675781 74.832031 L 174.40625 74.832031 Z M 174.40625 60.5625 " clip-rule="nonzero"/></clipPath><clipPath id="c145c0c285"><path d="M 181.539062 60.5625 C 177.597656 60.5625 174.40625 63.757812 174.40625 67.695312 C 174.40625 71.636719 177.597656 74.832031 181.539062 74.832031 C 185.480469 74.832031 188.675781 71.636719 188.675781 67.695312 C 188.675781 63.757812 185.480469 60.5625 181.539062 60.5625 Z M 181.539062 60.5625 " clip-rule="nonzero"/></clipPath></defs><g clip-path="url(#f5fe552ad6)"><g clip-path="url(#b1f15fdef9)"><path fill="#ffdae7" d="M 64.542969 22.351562 L 310.457031 22.351562 L 310.457031 268.265625 L 64.542969 268.265625 Z M 64.542969 22.351562 " fill-opacity="1" fill-rule="nonzero"/></g></g><g clip-path="url(#c59d0bb3c5)"><g clip-path="url(#5493982ebb)"><path fill="#ffdae7" d="M 55.347656 109.859375 L 73.738281 109.859375 L 73.738281 128.253906 L 55.347656 128.253906 Z M 55.347656 109.859375 " fill-opacity="1" fill-rule="nonzero"/></g></g><g clip-path="url(#fcc715ef28)"><g clip-path="url(#da0fb90dcc)"><path fill="#ffdae7" d="M 78.605469 63.574219 L 97 63.574219 L 97 81.96875 L 78.605469 81.96875 Z M 78.605469 63.574219 " fill-opacity="1" fill-rule="nonzero"/></g></g><g clip-path="url(#9421a003c9)"><g clip-path="url(#eac0c4ab3f)"><path fill="#ffdae7" d="M 111.722656 30.457031 L 130.117188 30.457031 L 130.117188 48.847656 L 111.722656 48.847656 Z M 111.722656 30.457031 " fill-opacity="1" fill-rule="nonzero"/></g></g><g clip-path="url(#834d0db726)"><g clip-path="url(#47ea7cbeb7)"><path fill="#ffdae7" d="M 170.585938 10.570312 L 188.484375 10.570312 L 188.484375 28.46875 L 170.585938 28.46875 Z M 170.585938 10.570312 " fill-opacity="1" fill-rule="nonzero"/></g></g><g clip-path="url(#edebe2c9f7)"><g clip-path="url(#43fbbb5a0d)"><path fill="#ffdae7" d="M 231.28125 16.378906 L 248.84375 16.378906 L 248.84375 34.90625 L 231.28125 34.90625 Z M 231.28125 16.378906 " fill-opacity="1" fill-rule="nonzero"/></g></g><g clip-path="url(#95e0225667)"><g clip-path="url(#0d5feb5790)"><g clip-path="url(#0472c69cdd)"><path fill="#ffdae7" d="M 275.484375 61.554688 L 289.679688 48.855469 L 298.191406 58.367188 L 283.996094 71.066406 Z M 275.484375 61.554688 " fill-opacity="1" fill-rule="nonzero"/></g></g></g><g clip-path="url(#bc4548d359)"><g clip-path="url(#69f33a60af)"><path fill="#ffdae7" d="M 302.335938 106.128906 L 318.578125 106.128906 L 318.578125 122.371094 L 302.335938 122.371094 Z M 302.335938 106.128906 " fill-opacity="1" fill-rule="nonzero"/></g></g><g clip-path="url(#3e1287e00b)"><g clip-path="url(#beb852ec52)"><path fill="#ffdae7" d="M 302.335938 160.609375 L 322.738281 160.609375 L 322.738281 177.679688 L 302.335938 177.679688 Z M 302.335938 160.609375 " fill-opacity="1" fill-rule="nonzero"/></g></g><g clip-path="url(#d71b59d392)"><g clip-path="url(#41784c7529)"><path fill="#ffdae7" d="M 85.816406 221.378906 L 99.738281 221.378906 L 99.738281 235.304688 L 85.816406 235.304688 Z M 85.816406 221.378906 " fill-opacity="1" fill-rule="nonzero"/></g></g><g clip-path="url(#dc3d4e77e9)"><g clip-path="url(#023fc7f7e5)"><path fill="#ffdae7" d="M 58.316406 167.144531 L 72.238281 167.144531 L 72.238281 181.066406 L 58.316406 181.066406 Z M 58.316406 167.144531 " fill-opacity="1" fill-rule="nonzero"/></g></g><g clip-path="url(#ea902fa5ff)"><g clip-path="url(#d910ba8e61)"><path fill="#ffdae7" d="M 137.890625 258.550781 L 151.8125 258.550781 L 151.8125 272.472656 L 137.890625 272.472656 Z M 137.890625 258.550781 " fill-opacity="1" fill-rule="nonzero"/></g></g><g clip-path="url(#e3b7544fa7)"><g clip-path="url(#c476c85fc2)"><path fill="#ffdae7" d="M 221.675781 258.550781 L 235.601562 258.550781 L 235.601562 272.472656 L 221.675781 272.472656 Z M 221.675781 258.550781 " fill-opacity="1" fill-rule="nonzero"/></g></g><g clip-path="url(#bb7f9f5469)"><g clip-path="url(#c0c9ad53ab)"><g clip-path="url(#3c1b5f0cb7)"><path fill="#ffdae7" d="M 271.347656 227.289062 L 282.582031 219.058594 L 293.542969 234.019531 L 282.308594 242.246094 Z M 271.347656 227.289062 " fill-opacity="1" fill-rule="nonzero"/></g></g></g><g clip-path="url(#da52d75afd)"><g clip-path="url(#ee629e393b)"><path fill="#ffffff" d="M 115.914062 67.695312 L 267.070312 67.695312 L 267.070312 218.851562 L 115.914062 218.851562 Z M 115.914062 67.695312 " fill-opacity="1" fill-rule="nonzero"/></g></g><g clip-path="url(#a36ae6ee79)"><g clip-path="url(#cc1ddf1ebb)"><path fill="#ffffff" d="M 134.976562 83.097656 L 149.246094 83.097656 L 149.246094 97.367188 L 134.976562 97.367188 Z M 134.976562 83.097656 " fill-opacity="1" fill-rule="nonzero"/></g></g><g clip-path="url(#1df89e70fb)"><g clip-path="url(#af1bad400e)"><path fill="#ffdae7" d="M 174.40625 261.019531 L 198.671875 261.019531 L 198.671875 389.28125 L 174.40625 389.28125 Z M 174.40625 261.019531 " fill-opacity="1" fill-rule="nonzero"/></g></g><g clip-path="url(#7ff417368e)"><g clip-path="url(#c7a2d6fd4e)"><path fill="#ffdae7" d="M 127.84375 184.699219 L 142.113281 184.699219 L 142.113281 198.96875 L 127.84375 198.96875 Z M 127.84375 184.699219 " fill-opacity="1" fill-rule="nonzero"/></g></g><g clip-path="url(#8e57126db5)"><g clip-path="url(#0f3be59e3e)"><path fill="#ffdae7" d="M 160.136719 201.601562 L 174.40625 201.601562 L 174.40625 215.871094 L 160.136719 215.871094 Z M 160.136719 201.601562 " fill-opacity="1" fill-rule="nonzero"/></g></g><g clip-path="url(#f960e56e55)"><g clip-path="url(#9b4bb38446)"><path fill="#ffdae7" d="M 198.671875 208.734375 L 212.941406 208.734375 L 212.941406 223.003906 L 198.671875 223.003906 Z M 198.671875 208.734375 " fill-opacity="1" fill-rule="nonzero"/></g></g><g clip-path="url(#91b8cd99b1)"><g clip-path="url(#a7af8bb7bb)"><path fill="#ffdae7" d="M 235.792969 191.832031 L 250.0625 191.832031 L 250.0625 206.101562 L 235.792969 206.101562 Z M 235.792969 191.832031 " fill-opacity="1" fill-rule="nonzero"/></g></g><g clip-path="url(#92c1370c23)"><g clip-path="url(#187beaab34)"><path fill="#ffdae7" d="M 252.800781 156.425781 L 267.070312 156.425781 L 267.070312 170.695312 L 252.800781 170.695312 Z M 252.800781 156.425781 " fill-opacity="1" fill-rule="nonzero"/></g></g><g clip-path="url(#e6378b4606)"><g clip-path="url(#4d849c6c34)"><path fill="#ffdae7" d="M 252.800781 125.5 L 268.820312 125.5 L 268.820312 141.523438 L 252.800781 141.523438 Z M 252.800781 125.5 " fill-opacity="1" fill-rule="nonzero"/></g></g><g clip-path="url(#5bb0324a34)"><g clip-path="url(#702197c713)"><path fill="#ffdae7" d="M 240.695312 90.230469 L 254.964844 90.230469 L 254.964844 104.5 L 240.695312 104.5 Z M 240.695312 90.230469 " fill-opacity="1" fill-rule="nonzero"/></g></g><g clip-path="url(#d434fad9c7)"><g clip-path="url(#e141cb19bd)"><path fill="#ffdae7" d="M 111.128906 152.925781 L 125.398438 152.925781 L 125.398438 167.195312 L 111.128906 167.195312 Z M 111.128906 152.925781 " fill-opacity="1" fill-rule="nonzero"/></g></g><g clip-path="url(#f126704c6f)"><g clip-path="url(#40af9d8026)"><path fill="#ffdae7" d="M 111.128906 119.242188 L 125.398438 119.242188 L 125.398438 133.511719 L 111.128906 133.511719 Z M 111.128906 119.242188 " fill-opacity="1" fill-rule="nonzero"/></g></g><g clip-path="url(#8ba38037c8)"><g clip-path="url(#c610eb936c)"><path fill="#ffdae7" d="M 215.132812 67.695312 L 229.402344 67.695312 L 229.402344 81.964844 L 215.132812 81.964844 Z M 215.132812 67.695312 " fill-opacity="1" fill-rule="nonzero"/></g></g><g clip-path="url(#a16180f63c)"><g clip-path="url(#c145c0c285)"><path fill="#ffdae7" d="M 174.40625 60.5625 L 188.675781 60.5625 L 188.675781 74.832031 L 174.40625 74.832031 Z M 174.40625 60.5625 " fill-opacity="1" fill-rule="nonzero"/></g></g><path fill="#ff8fb7" d="M 319.535156 173.109375 C 318.355469 173.332031 316.632812 172.789062 315.660156 172.664062 C 311.972656 172.222656 308.285156 171.773438 304.609375 171.320312 C 297.363281 170.4375 290.128906 169.558594 282.886719 168.675781 C 276.71875 167.929688 270.539062 167.175781 264.367188 166.425781 C 261.71875 166.097656 258.832031 166.097656 256.246094 165.632812 C 253.132812 165.074219 253.855469 161.542969 256.542969 161.121094 C 260.65625 160.46875 265.382812 161.316406 269.488281 161.703125 C 278.316406 162.527344 287.125 163.558594 295.90625 164.800781 C 300.292969 165.421875 304.675781 166.089844 309.046875 166.8125 C 312.207031 167.339844 318.207031 167.167969 320.441406 169.777344 C 321.109375 170.570312 321.148438 172.074219 320.304688 172.773438 C 320.101562 172.945312 319.835938 173.046875 319.535156 173.109375 Z M 279.078125 214.761719 C 271.507812 208.921875 263.855469 203.03125 255.546875 196.636719 C 267.71875 171.980469 261.984375 171.648438 295.867188 179.269531 C 294.609375 192.800781 290.859375 200.992188 279.078125 214.761719 Z M 288.074219 233.792969 C 287.972656 234.292969 287.707031 234.726562 287.273438 234.972656 C 286.464844 235.433594 285.457031 235.105469 284.597656 234.765625 C 278.332031 232.25 272.898438 228.121094 267.644531 223.976562 C 262.222656 219.699219 256.828125 215.722656 251.550781 211.253906 C 248.074219 208.308594 244.035156 205.6875 241.242188 202.117188 C 240.457031 201.121094 239.761719 199.734375 240.417969 198.660156 C 242.25 195.71875 249.8125 202.425781 251.1875 203.542969 C 256.007812 207.457031 260.546875 211.390625 265.53125 215.117188 C 269.414062 218.027344 273.292969 220.925781 277.175781 223.828125 C 279.171875 225.316406 281.164062 226.808594 283.160156 228.296875 C 284.589844 229.371094 286.925781 230.464844 287.808594 232.070312 C 288.097656 232.582031 288.191406 233.226562 288.074219 233.792969 Z M 232.671875 249 C 228.953125 239.988281 225.445312 231.480469 221.503906 221.902344 C 227.394531 218.183594 232.546875 214.925781 239.386719 210.601562 C 248.019531 217.253906 255.757812 223.199219 264.34375 229.8125 C 255.617188 240.609375 245.558594 245.847656 232.671875 249 Z M 227.898438 268.382812 C 226.875 266.886719 226.207031 264.519531 225.796875 263.601562 C 224.46875 260.644531 223.140625 257.679688 221.820312 254.707031 C 219.703125 249.957031 217.582031 245.191406 215.457031 240.4375 C 213.785156 236.699219 212.109375 232.957031 210.441406 229.214844 C 208.390625 224.640625 202.964844 218.65625 204.246094 213.316406 C 204.511719 212.253906 205.347656 211.292969 206.4375 211.097656 C 209.539062 210.546875 212.375 219.652344 213.414062 221.871094 C 215.6875 226.753906 217.792969 231.714844 219.78125 236.722656 C 222.023438 242.363281 224.125 248.0625 226.175781 253.78125 C 227.222656 256.703125 228.257812 259.621094 229.289062 262.546875 C 229.730469 263.820312 232.285156 268.042969 231.113281 269.050781 C 229.777344 270.214844 228.722656 269.585938 227.898438 268.382812 Z M 162.886719 256.179688 C 162.476562 244.570312 168.796875 236.628906 172.730469 227.375 L 200.496094 227.375 C 204.410156 236.417969 208.246094 245.289062 213.234375 256.863281 C 194.527344 258.84375 179.144531 259.519531 162.886719 256.179688 Z M 181.128906 270.851562 C 182.253906 270.796875 186.570312 270.472656 188.914062 271 C 189.824219 271.210938 190.4375 271.535156 190.453125 272.070312 C 190.753906 284.578125 190.476562 296.988281 190.6875 309.523438 C 190.902344 322.792969 191.128906 336.066406 191.34375 349.332031 C 191.78125 375.855469 192.214844 402.386719 192.640625 428.917969 C 193.078125 455.453125 193.496094 481.984375 193.921875 508.515625 C 193.984375 512.226562 194.039062 515.945312 194.101562 519.664062 C 194.195312 525.59375 194 531.679688 195.140625 537.53125 C 191.859375 537.75 188.582031 537.96875 185.304688 538.183594 C 184.949219 525.429688 184.296875 512.769531 183.675781 500 C 183.109375 488.285156 182.667969 476.558594 182.277344 464.835938 C 181.828125 451.300781 181.464844 437.753906 181.144531 424.207031 C 180.820312 410.132812 180.554688 396.054688 180.355469 381.972656 C 180.167969 368.644531 180.027344 355.316406 179.964844 341.988281 C 179.917969 330.695312 179.917969 319.398438 180.050781 308.105469 C 180.144531 300.132812 180.261719 292.152344 180.671875 284.1875 C 180.734375 283.03125 181.230469 270.851562 181.128906 270.851562 Z M 233.503906 567.363281 C 245.316406 581.988281 249.984375 598.816406 245.261719 617.492188 C 238.625 643.746094 214.351562 661.3125 189.257812 658.191406 C 177.488281 656.742188 166.40625 651.484375 157.988281 643.09375 C 143.957031 629.089844 136.558594 605.359375 143.015625 586.140625 C 144.730469 581.054688 147.082031 576.1875 150.027344 571.703125 C 156.925781 561.160156 166.941406 553.996094 178.925781 550.402344 C 194.871094 545.621094 212.582031 548.980469 225.5625 559.421875 C 228.488281 561.773438 231.144531 564.445312 233.503906 567.363281 Z M 142.621094 271.332031 C 142.597656 271.324219 142.582031 271.308594 142.566406 271.300781 C 141.820312 270.859375 141.488281 269.9375 141.519531 269.082031 C 141.550781 268.222656 141.890625 267.40625 142.214844 266.613281 C 146.144531 257.191406 149.691406 247.695312 153.410156 238.203125 C 155.988281 231.613281 157.726562 224.757812 160.652344 218.230469 C 161.605469 216.105469 165.9375 204.039062 169.191406 206.121094 C 171.21875 207.417969 168.335938 213.222656 167.839844 214.945312 C 165.363281 223.617188 162.816406 232.21875 159.519531 240.625 C 155.808594 250.074219 151.78125 259.738281 146.9375 268.648438 C 146.476562 269.492188 145.996094 270.355469 145.242188 270.945312 C 144.507812 271.519531 143.433594 271.777344 142.621094 271.332031 Z M 109.15625 226.652344 C 118.535156 218.519531 125.582031 212.402344 133.640625 205.40625 C 139.949219 209.832031 145.789062 213.914062 152.585938 218.679688 C 148.867188 228.351562 145.390625 237.378906 141.082031 248.558594 C 130.207031 241.097656 120.910156 234.71875 109.15625 226.652344 Z M 91.613281 233.34375 C 90.285156 233.375 88.941406 232.730469 88.59375 231.480469 C 88.121094 229.8125 89.570312 228.269531 90.882812 227.125 C 97.335938 221.53125 104.070312 216.128906 110.132812 210.117188 C 117.097656 203.226562 124.605469 196.835938 132.777344 191.417969 C 134.253906 190.441406 137.085938 187.53125 138.808594 189.710938 C 141.332031 192.917969 133.777344 197.976562 131.847656 199.40625 C 127.035156 202.96875 122.578125 206.726562 118.144531 210.699219 C 113.75 214.660156 109.34375 218.601562 104.941406 222.554688 C 102.691406 224.566406 100.460938 226.605469 98.195312 228.601562 C 96.558594 230.039062 94.882812 232.320312 92.839844 233.113281 C 92.453125 233.257812 92.03125 233.335938 91.613281 233.34375 Z M 79 181.328125 C 91.09375 177.625 100.953125 174.621094 112.199219 171.183594 C 115.492188 177.789062 118.433594 183.679688 122.066406 190.945312 C 113.976562 197.957031 106.230469 204.652344 96.722656 212.890625 C 90.472656 201.765625 85.226562 192.421875 79 181.328125 Z M 64.320312 178.238281 C 62.316406 178.347656 59.785156 177.324219 61.292969 174.871094 C 62.480469 172.9375 66.75 172.617188 68.707031 172.066406 C 75.722656 170.074219 82.742188 168.078125 89.765625 166.082031 C 94.796875 164.644531 99.832031 163.21875 104.839844 161.695312 C 107.527344 160.890625 110.203125 160.191406 112.796875 159.1875 C 114.683594 158.46875 117.65625 157.367188 119.605469 158.414062 C 121.484375 159.421875 119.859375 160.945312 118.796875 161.640625 C 115.839844 163.605469 112.121094 164.273438 108.824219 165.4375 C 104.085938 167.097656 99.160156 168.15625 94.421875 169.769531 C 86.746094 172.386719 78.960938 175.03125 71.066406 176.886719 C 70.21875 177.089844 66.914062 178.097656 64.320312 178.238281 Z M 107.410156 136.445312 L 107.410156 154.351562 C 97.605469 157.15625 87.792969 159.964844 77.339844 162.960938 C 72.074219 153.019531 73.238281 143.546875 74.550781 131.679688 C 85.511719 133.269531 95.527344 134.722656 107.410156 136.445312 Z M 63.226562 120.648438 C 61.90625 120.292969 59.703125 120.199219 58.917969 118.871094 C 57.863281 117.078125 59.476562 115.464844 61.191406 115.757812 C 67.191406 116.765625 73.277344 118.421875 79.292969 119.59375 C 86.550781 121.011719 93.816406 122.433594 101.074219 123.855469 L 111.964844 125.980469 C 114.15625 126.410156 119.480469 126.285156 120.054688 129.101562 C 120.25 130.066406 119.953125 130.625 119.394531 130.925781 C 117.953125 131.703125 114.730469 130.800781 113.355469 130.625 C 109.964844 130.171875 106.578125 129.652344 103.195312 129.125 C 97.917969 128.292969 92.582031 127.566406 87.34375 126.476562 C 81.988281 125.359375 76.664062 124.109375 71.359375 122.769531 C 68.644531 122.085938 65.925781 121.371094 63.226562 120.648438 Z M 87.226562 84.296875 C 98.652344 91.277344 107.417969 96.632812 116.816406 102.367188 C 114.917969 107.382812 113.332031 111.574219 111.042969 117.613281 C 100.152344 115.773438 89.695312 114.003906 76.824219 111.832031 C 80.488281 102.128906 83.46875 94.226562 87.226562 84.296875 Z M 86.535156 69.578125 C 87.484375 69.53125 88.359375 70.015625 89.191406 70.488281 C 102.214844 77.933594 114.628906 86.570312 127.1875 94.886719 C 128.46875 95.730469 132.46875 100 129.003906 100.304688 C 128.871094 100.3125 128.726562 100.320312 128.5625 100.320312 C 127.722656 100.3125 126.941406 99.9375 126.1875 99.566406 C 115.964844 94.480469 106.851562 87.921875 97.210938 81.84375 C 94.4375 80.105469 91.636719 78.414062 88.8125 76.765625 C 87.242188 75.851562 83.921875 74.042969 84.152344 71.824219 C 84.285156 70.644531 85.347656 69.632812 86.535156 69.578125 Z M 117.578125 51.4375 C 119.542969 54.808594 120.714844 57.207031 122.226562 59.371094 C 126.730469 65.769531 131.363281 72.070312 136.472656 79.144531 C 133.800781 81.347656 131.769531 84.375 130.089844 84.1875 C 118.789062 82.914062 110.125 76.191406 99.074219 68.398438 C 105.609375 62.40625 110.492188 57.929688 117.578125 51.4375 Z M 117.65625 36.707031 C 117.703125 36.644531 117.742188 36.589844 117.789062 36.535156 C 118.386719 35.8125 119.433594 35.441406 120.289062 35.8125 C 120.917969 36.085938 121.328125 36.683594 121.714844 37.25 C 126.414062 44.1875 130.765625 51.160156 135.457031 58.074219 C 139.71875 64.378906 144.730469 70.085938 148.761719 76.566406 C 149.28125 77.402344 149.808594 78.421875 149.421875 79.328125 C 149.054688 80.191406 147.96875 80.554688 147.046875 80.386719 C 146.128906 80.214844 145.34375 79.625 144.617188 79.042969 C 140.523438 75.773438 137.378906 71.550781 134.539062 67.1875 C 131.425781 62.421875 128.246094 57.828125 124.835938 53.238281 C 122.65625 50.304688 121.3125 46.96875 119.386719 43.855469 C 118.136719 41.835938 115.964844 39.1875 117.65625 36.707031 Z M 170.613281 29.703125 C 171.257812 41.609375 171.699219 49.746094 172.1875 58.773438 C 165.171875 61.917969 158.710938 64.804688 151.246094 68.152344 C 145.28125 59.394531 139.839844 51.398438 132.917969 41.222656 C 145.886719 37.257812 156.957031 33.878906 170.613281 29.703125 Z M 173.210938 74.390625 C 176.535156 76.945312 182.269531 82.984375 187 80.664062 C 189.445312 79.453125 191.269531 76.789062 192.898438 74.710938 C 194.039062 73.242188 195.109375 71.09375 196.65625 70.113281 C 198.542969 68.910156 201.585938 68.867188 203.695312 69.246094 C 205.867188 69.648438 208.058594 70.683594 209.65625 72.226562 C 209.882812 72.453125 210.070312 72.675781 210.230469 72.917969 C 211.21875 74.351562 211.25 76.152344 211.652344 77.933594 C 212.226562 80.445312 212.839844 83.480469 214.578125 85.5 C 219.460938 91.191406 229.429688 83.335938 235.453125 84.367188 C 237.027344 84.640625 239.449219 85.757812 239.921875 87.488281 C 240.375 89.132812 239.207031 91.90625 238.875 93.589844 C 238.097656 97.570312 236.839844 102.082031 238.175781 106.078125 C 239.992188 111.503906 245.039062 110.875 249.632812 109.890625 C 251.605469 109.480469 254.710938 108.128906 256.332031 109.632812 C 258.320312 111.480469 258.816406 114.335938 259.34375 116.859375 C 259.980469 119.949219 259.695312 120.773438 257.472656 123.203125 C 254.261719 126.71875 248.578125 130.707031 248.035156 135.839844 C 247.617188 139.738281 249.929688 142.375 253.476562 143.609375 C 255.554688 144.332031 257.800781 144.597656 259.988281 144.726562 C 260.898438 144.773438 262.269531 144.519531 262.953125 145.125 C 263.699219 145.800781 263.847656 148.328125 263.957031 149.277344 C 264.046875 150.054688 264.085938 150.875 263.769531 151.597656 C 262.890625 153.546875 260.066406 153.800781 258.25 154.121094 C 256.285156 154.453125 254.796875 155.035156 253.027344 155.992188 C 250.683594 157.25 247.675781 158.722656 246.304688 161.136719 C 245.15625 163.15625 245.730469 165.273438 246.714844 167.238281 C 247.632812 169.0625 249.175781 170.707031 250.394531 172.324219 C 251.683594 174.039062 254.246094 175.621094 253.878906 178.011719 C 253.476562 180.691406 250.183594 185.148438 247.808594 186.542969 C 245.714844 187.785156 241.28125 187.902344 239.085938 187.027344 C 232.625 184.449219 228.691406 193.011719 229.226562 197.976562 C 229.382812 199.414062 229.792969 200.890625 229.414062 202.285156 C 228.929688 204.027344 227.324219 205.214844 225.6875 205.964844 C 223.839844 206.820312 221.757812 207.960938 219.75 208.015625 C 217.558594 208.070312 215.222656 207.285156 213.15625 206.648438 C 206.996094 204.746094 200.699219 204.761719 196.15625 209.917969 C 194.730469 211.539062 193.660156 213.683594 191.539062 214.503906 C 189.148438 215.4375 184.203125 215.652344 181.96875 214.339844 C 180.65625 213.574219 180.050781 212.003906 179.765625 210.507812 C 178.832031 205.601562 177.410156 198.34375 171.378906 197.378906 C 168.742188 196.953125 166.023438 197.941406 163.671875 199.042969 C 162.066406 199.789062 160.535156 200.78125 159.015625 201.6875 C 157.40625 202.644531 154.589844 205.265625 152.671875 205.207031 C 151.964844 205.191406 151.320312 204.839844 150.722656 204.46875 C 149.234375 203.558594 146.539062 202.023438 145.820312 200.316406 C 144.964844 198.320312 146.898438 195.457031 147.386719 193.523438 C 148.324219 189.820312 147.167969 185.660156 144.46875 182.972656 C 143.1875 181.707031 141.589844 180.792969 139.871094 180.28125 C 137.0625 179.433594 135.347656 180.761719 132.761719 181.007812 C 130.488281 181.21875 128.167969 179.984375 126.714844 178.292969 C 124.78125 176.027344 122.003906 170.980469 125.085938 168.582031 C 127.863281 166.417969 131.886719 164.125 131.265625 159.800781 C 130.765625 156.332031 125.644531 153.460938 122.453125 150.433594 C 118.238281 146.429688 117.703125 143.097656 123.011719 139.207031 C 132.824219 132.011719 133.066406 131.570312 126.855469 121.042969 C 124.058594 116.308594 124.363281 113.257812 128.59375 110.582031 C 132.621094 108.027344 141.332031 104.316406 139.53125 98.300781 C 138.824219 95.925781 136.667969 93.859375 137.078125 91.421875 C 137.335938 89.878906 138.566406 88.722656 139.734375 87.679688 C 140.035156 87.410156 140.371094 87.121094 140.773438 87.097656 C 141.144531 87.066406 141.496094 87.277344 141.8125 87.472656 C 144.570312 89.15625 146.222656 90.429688 149.453125 90.226562 C 151.304688 90.109375 153.113281 89.941406 154.785156 89.039062 C 158.867188 86.859375 160.054688 81.640625 160.054688 77.359375 C 160.210938 72.707031 169.144531 71.265625 173.210938 74.390625 Z M 177.792969 16.792969 C 177.824219 15.839844 177.917969 14.785156 178.605469 14.140625 C 180.144531 12.710938 181.074219 13.558594 181.648438 15.195312 C 182.535156 17.71875 182.558594 22.121094 182.621094 22.996094 C 182.898438 27.398438 183.132812 31.800781 183.3125 36.199219 C 183.351562 37.164062 183.382812 38.125 183.414062 39.089844 C 183.667969 48.277344 184.039062 57.546875 183.753906 66.730469 C 183.714844 68.175781 183.109375 70.464844 181.347656 69.011719 C 180.074219 67.957031 180.292969 64.851562 180.113281 63.332031 C 179.855469 61.015625 179.648438 58.6875 179.46875 56.367188 C 179.113281 51.71875 178.863281 47.0625 178.53125 42.410156 C 177.925781 33.886719 177.480469 25.339844 177.792969 16.792969 Z M 225.980469 36.753906 C 222.84375 44.886719 220.113281 51.949219 217.046875 59.898438 C 208.515625 58.402344 200.941406 57.066406 191.851562 55.460938 C 191.351562 47.339844 190.863281 39.367188 190.320312 30.472656 C 203.539062 29.074219 214.167969 31.792969 225.980469 36.753906 Z M 228.785156 47.667969 C 230.46875 43.085938 232.300781 38.5625 234.234375 34.074219 C 235.957031 30.09375 237.121094 25.839844 238.882812 21.777344 C 240.1875 18.78125 243.175781 16.65625 244.402344 20.707031 C 245.347656 23.867188 244.347656 26.699219 243.183594 29.6875 C 237.71875 43.769531 231.773438 57.65625 225.941406 71.597656 C 225.398438 72.902344 224.0625 76.117188 222.203125 76.023438 C 221.867188 76.007812 221.601562 75.9375 221.402344 75.8125 C 220.050781 75.035156 221.027344 72.351562 221.355469 71.226562 C 222.148438 68.507812 222.835938 65.761719 223.652344 63.050781 C 225.199219 57.875 226.914062 52.742188 228.785156 47.667969 Z M 246.390625 44.257812 C 254.75 50.53125 262.125 56.066406 270.722656 62.523438 C 263.15625 69.757812 256.914062 75.71875 250.703125 81.65625 C 234.3125 73.808594 230.492188 71.070312 246.390625 44.257812 Z M 288.871094 54.714844 C 290.355469 53.96875 292.429688 54.644531 292.839844 56.539062 C 293.289062 58.574219 289.960938 60.753906 288.71875 61.949219 C 286.722656 63.875 284.71875 65.808594 282.71875 67.738281 C 278.617188 71.691406 274.527344 75.640625 270.429688 79.59375 C 265.773438 84.09375 261.105469 88.597656 256.449219 93.09375 C 254.5625 94.910156 246.140625 105.324219 243.59375 102.617188 C 241.382812 100.257812 253.097656 90.648438 254.933594 88.800781 C 259.765625 83.949219 264.59375 79.097656 269.429688 74.246094 C 273.804688 69.84375 278.183594 65.449219 282.5625 61.046875 C 284.464844 59.140625 286.328125 56.625 288.429688 54.992188 C 288.570312 54.886719 288.71875 54.792969 288.871094 54.714844 Z M 298.132812 108.726562 C 289.507812 112.429688 281.210938 115.992188 271.003906 120.378906 C 267.789062 113.164062 264.980469 106.847656 261.648438 99.378906 C 269.480469 91.972656 275.839844 85.964844 283.105469 79.089844 C 291.046875 87.652344 294.128906 97.292969 298.132812 108.726562 Z M 302.496094 128.480469 L 302.496094 158.847656 C 293.050781 157.941406 284.019531 157.078125 274.195312 156.132812 C 272.601562 138.519531 272.570312 138.433594 285.976562 133.503906 C 290.742188 131.75 295.710938 130.523438 302.496094 128.480469 Z M 315.132812 115.921875 C 314.441406 116.101562 313.699219 116.199219 313.144531 116.386719 C 310.523438 117.25 307.953125 118.328125 305.359375 119.296875 C 294.460938 123.375 283.71875 127.75 272.890625 132.035156 C 269.707031 133.292969 266.476562 134.480469 263.335938 135.816406 C 261.726562 136.5 258.4375 138.601562 256.78125 137.066406 C 255.757812 136.113281 256.410156 134.007812 257.210938 133.175781 C 258 132.355469 259.066406 131.859375 260.097656 131.390625 C 266.984375 128.273438 274.0625 125.679688 281.039062 122.84375 C 290.78125 118.902344 300.261719 114.546875 310.445312 111.683594 C 311.71875 111.324219 313.039062 110.976562 314.339844 111.203125 C 315.644531 111.417969 316.917969 112.367188 317.089844 113.679688 C 317.269531 115.105469 316.265625 115.617188 315.132812 115.921875 Z M 313.464844 158.085938 L 313.464844 124.738281 C 317.882812 119.902344 328.136719 120.207031 325.652344 110.332031 C 322.957031 99.675781 312.625 107.273438 307.464844 103.757812 C 306.578125 103.152344 305.8125 100.273438 305.335938 99.269531 C 304.601562 97.71875 303.871094 96.171875 303.132812 94.628906 C 301.703125 91.609375 300.277344 88.597656 298.847656 85.585938 C 296.828125 81.230469 294.796875 76.90625 292.234375 72.847656 C 291.871094 72.273438 290.695312 71.0625 290.683594 70.394531 C 290.660156 69.65625 291.652344 69.011719 292.132812 68.523438 C 294.679688 65.921875 297.132812 63.136719 298.847656 59.90625 C 300.835938 56.164062 299.75 52.710938 296.882812 49.761719 C 291.109375 43.824219 285.441406 49.699219 280.328125 53.261719 C 280.023438 53.480469 279.707031 53.691406 279.339844 53.757812 C 278.84375 53.851562 278.332031 53.644531 277.945312 53.316406 C 269.117188 45.894531 259.152344 39.429688 249.789062 32.621094 C 249.160156 25.023438 254.757812 16.367188 245.238281 12.222656 C 241.730469 10.699219 238.269531 10.707031 235.824219 13.914062 C 233.183594 17.382812 231.523438 21.839844 229.519531 25.691406 C 229.421875 25.882812 229.3125 26.085938 229.109375 26.179688 C 228.90625 26.273438 228.667969 26.210938 228.449219 26.15625 C 222.96875 24.640625 217.355469 22.957031 211.722656 21.769531 C 206.0625 20.582031 200.273438 20.0625 194.511719 19.667969 C 193.394531 19.597656 192.269531 19.535156 191.144531 19.480469 C 189.925781 19.433594 189.34375 19.699219 189.140625 18.378906 C 188.929688 17.058594 189.007812 15.691406 188.707031 14.339844 C 187.480469 8.808594 184.125 4.273438 177.917969 5.167969 C 168.515625 6.5 172.871094 15.613281 168.886719 19.683594 C 157.75 23.371094 146.875 27.296875 135.78125 30.472656 C 132.902344 31.296875 129.570312 31.488281 126.605469 31.007812 C 123.96875 30.574219 121.722656 28.71875 118.96875 28.230469 C 116.46875 27.785156 113.75 28.136719 111.671875 29.59375 C 109.589844 31.054688 108.285156 33.71875 108.816406 36.199219 C 109.242188 38.1875 110.753906 40.003906 110.445312 42.023438 C 109.972656 45.160156 106.445312 47.089844 104.328125 49.023438 C 101.921875 51.222656 99.726562 53.652344 97.800781 56.273438 C 96.660156 57.820312 95.585938 59.457031 94.050781 60.613281 C 89.246094 64.214844 83.402344 60.980469 78.261719 63.199219 C 73.527344 65.253906 74.597656 70.472656 76.640625 74.191406 C 79.699219 79.765625 79 83.769531 76.585938 88.761719 C 73.410156 95.304688 70.699219 102.074219 68.210938 107.777344 C 61.625 111.472656 52.039062 105.574219 50.015625 115.625 C 47.957031 125.796875 59.210938 125.476562 63.777344 131.40625 L 63.777344 164.738281 C 59.816406 170.421875 48.53125 169.390625 51.589844 179.441406 C 54.585938 189.292969 63.390625 182.53125 69.421875 184.558594 C 75.636719 196.714844 81.785156 208.753906 88.003906 220.925781 C 85.792969 223.882812 83.246094 226.140625 82.242188 228.941406 C 81.15625 231.96875 80.070312 236.835938 81.597656 238.484375 C 83.46875 240.484375 88.207031 240.820312 91.441406 240.308594 C 94.796875 239.773438 97.839844 237.351562 100.398438 236.070312 C 112.9375 244.691406 124.535156 252.664062 136.085938 260.613281 C 136.152344 267.1875 131.394531 274.757812 140.617188 278.707031 C 152.066406 283.597656 152.246094 270.84375 159.039062 266.886719 C 162.484375 267.871094 166.359375 268.980469 170.566406 270.183594 C 170.789062 273.429688 171.109375 276.007812 171.140625 278.578125 C 171.929688 361.527344 172.566406 444.476562 173.664062 527.410156 C 173.785156 536.988281 170.472656 542.183594 162.28125 547.296875 C 122.28125 572.308594 121.28125 630.535156 159.835938 657.972656 C 184.421875 675.464844 219.167969 670.597656 237.964844 647.015625 C 265.539062 612.433594 255.332031 561.992188 215.757812 542.089844 C 205.945312 537.152344 203.648438 531.367188 203.523438 521.480469 C 202.6875 457.429688 201.242188 393.398438 200.171875 329.359375 C 199.859375 310.550781 200.125 291.734375 200.125 271.910156 C 205.410156 270.742188 210.929688 269.53125 216.0625 268.398438 C 222.433594 271.636719 224.070312 281.246094 233.246094 278.34375 C 242.25 275.488281 237.277344 267.65625 239.339844 262.492188 C 250.875 254.925781 262.230469 247.464844 273.535156 240.050781 C 280.382812 241.671875 286.558594 249.894531 293.769531 242.230469 C 301.757812 233.753906 290.097656 228.484375 289.625 223.253906 C 296.851562 207.929688 303.289062 194.292969 309.460938 181.203125 C 316.304688 177.664062 327.453125 184.695312 329.074219 172.160156 C 330.402344 161.859375 319.667969 164.242188 313.464844 158.085938 " fill-opacity="1" fill-rule="nonzero"/></svg>