<svg xmlns="http://www.w3.org/2000/svg" xmlns:xlink="http://www.w3.org/1999/xlink" zoomAndPan="magnify" viewBox="0 0 300 74.999997" preserveAspectRatio="xMidYMid meet" version="1.0"><defs><g/></defs><path stroke-linecap="butt" transform="matrix(2.260041, 0, 0, 2.260041, 27.489886, -21.476969)" fill="none" stroke-linejoin="miter" d="M 13.736597 25.877754 C 14.619808 25.8501 15.421785 26.057507 16.142527 26.501706 C 16.871911 26.93899 17.456109 27.519732 17.893394 28.242202 C 18.337592 28.964673 18.678087 29.758007 18.913149 30.627391 C 19.156853 31.495047 19.2571 32.369617 19.215618 33.2511 C 19.174137 34.132583 18.99784 34.903448 18.685 35.563696 C 18.629691 35.729622 18.527716 35.949129 18.382531 36.220487 C 18.244259 36.490117 17.889937 36.958513 17.319566 37.625675 C 16.750923 38.292836 16.114872 38.861479 15.414871 39.333332 C 14.720055 39.805185 13.748696 40.190617 12.497336 40.48963 C 11.247704 40.788643 9.897825 40.850865 8.445971 40.678026 C 8.363008 40.678026 8.248933 40.678026 8.103748 40.678026 C 7.963748 40.678026 7.678562 40.641729 7.248191 40.572593 C 6.824733 40.503457 6.404733 40.399753 5.988189 40.261482 C 5.578559 40.114568 5.117076 39.886419 4.603742 39.573579 C 4.097321 39.253826 3.641024 38.868393 3.238308 38.417281 C 2.842505 37.959256 2.476084 37.368143 2.13559 36.647402 C 1.795095 35.924931 1.537564 35.091843 1.364724 34.14641 C 0.53855 28.717512 0.381266 23.200465 0.896328 17.596999 C 1.0346 15.861688 1.34744 14.539463 1.83312 13.628598 C 2.742257 11.955508 4.33584 10.977235 6.613869 10.692049 C 6.752141 10.692049 6.943993 10.678222 7.185969 10.650568 C 7.429673 10.616 7.884241 10.60563 8.551403 10.619457 C 9.22375 10.633284 9.84943 10.685136 10.424986 10.775013 C 11.009185 10.859704 11.633137 11.029087 12.300298 11.286618 C 12.974373 11.542421 13.508448 11.882916 13.904251 12.306373 C 13.931906 12.361682 13.987215 12.429089 14.070178 12.505139 C 14.161783 12.574275 14.320795 12.743658 14.550672 13.015016 C 14.778821 13.286375 14.970673 13.576746 15.122772 13.889586 C 15.281785 14.202426 15.48055 14.608599 15.715613 15.108106 C 15.959317 15.6007 16.121786 16.119219 16.206478 16.660208 C 16.296354 17.201196 16.368947 17.837247 16.424256 18.566631 C 16.479564 19.289101 16.406972 20.030584 16.206478 20.794536 C 16.206478 21.024412 16.17191 21.326882 16.101045 21.701944 C 16.031909 22.068365 15.789934 22.707872 15.37339 23.617009 C 14.963759 24.527875 14.417586 25.279728 13.736597 25.877754 Z M 2.906455 23.190095 C 3.044727 23.04491 3.106949 22.873798 3.093122 22.680218 C 3.079295 22.477995 2.985962 22.305155 2.811393 22.15997 C 2.756085 22.075278 2.756085 21.892068 2.811393 21.606883 C 2.875344 21.406388 2.845961 21.22145 2.72843 21.055524 C 2.617813 20.880955 2.462257 20.766881 2.260034 20.711572 C 2.121763 20.683918 1.992133 20.683918 1.874602 20.711572 C 1.763984 20.739227 1.656824 20.804906 1.551391 20.910338 C 1.454601 21.007128 1.392379 21.12466 1.364724 21.262931 C 1.162502 22.146143 1.333613 22.815033 1.874602 23.273058 C 2.019787 23.413058 2.177071 23.482194 2.342998 23.482194 C 2.572874 23.482194 2.759541 23.385404 2.906455 23.190095 Z M 5.165471 13.462671 C 5.305472 13.289832 5.36078 13.104893 5.333126 12.911312 C 5.305472 12.70909 5.203496 12.54662 5.030656 12.420447 C 4.863002 12.289089 4.679792 12.237237 4.479297 12.264892 C 4.277075 12.292546 4.107692 12.392793 3.967692 12.567361 C 3.822506 12.760942 3.641024 13.039214 3.426703 13.400449 C 3.217567 13.754771 2.913369 14.44613 2.510652 15.472798 C 2.114849 16.494281 1.846947 17.527863 1.708676 18.577001 C 1.708676 18.777495 1.763984 18.96589 1.874602 19.13873 C 1.992133 19.306385 2.163244 19.403175 2.384479 19.43083 C 2.412133 19.43083 2.443245 19.43083 2.479541 19.43083 C 2.645467 19.43083 2.797566 19.368607 2.937566 19.242434 C 3.082752 19.111076 3.169172 18.948607 3.196826 18.753298 C 3.316086 17.84416 3.551148 16.928109 3.905469 16.003416 C 4.259791 15.073538 4.527693 14.453043 4.707446 14.140203 C 4.895841 13.827363 5.04794 13.600943 5.165471 13.462671 Z M 7.822019 20.160213 C 8.210909 20.528362 8.665477 20.711572 9.185725 20.711572 C 9.714615 20.711572 10.169183 20.528362 10.551159 20.160213 C 10.940049 19.792065 11.13363 19.337496 11.13363 18.794779 C 11.13363 18.454285 11.04721 18.136259 10.872641 17.837247 C 10.706715 17.538234 10.473382 17.296258 10.176097 17.107863 C 9.877084 16.921196 9.543503 16.826134 9.175355 16.826134 C 8.66202 16.826134 8.210909 17.021443 7.822019 17.410332 C 7.440043 17.792308 7.248191 18.253791 7.248191 18.794779 C 7.248191 19.337496 7.440043 19.792065 7.822019 20.160213 Z M 13.456596 31.16838 C 13.07462 30.793318 12.620052 30.606651 12.091162 30.606651 C 11.564001 30.606651 11.109432 30.793318 10.727456 31.16838 C 10.34548 31.536529 10.155356 31.991097 10.155356 32.532086 C 10.155356 33.074803 10.34548 33.536285 10.727456 33.918261 C 11.109432 34.300237 11.564001 34.490361 12.091162 34.490361 C 12.620052 34.490361 13.07462 34.300237 13.456596 33.918261 C 13.845486 33.536285 14.039067 33.074803 14.039067 32.532086 C 14.039067 31.991097 13.845486 31.536529 13.456596 31.16838 Z M 15.445982 33.636532 C 15.473637 33.351347 15.350921 33.195791 15.08129 33.168136 C 14.809932 33.140482 14.66129 33.268384 14.633635 33.553569 C 14.52129 34.262212 14.196351 34.803201 13.653634 35.178263 C 13.057336 35.601721 12.231162 35.712338 11.175111 35.511844 C 10.91758 35.456535 10.762024 35.563696 10.706715 35.835055 C 10.651407 36.104685 10.751654 36.268882 11.009185 36.324191 C 11.432642 36.414068 11.814618 36.459006 12.155113 36.459006 C 12.953633 36.459006 13.622523 36.258512 14.16524 35.855795 C 14.899809 35.313078 15.326723 34.573324 15.445982 33.636532 Z M 35.965523 31.678257 C 36.048486 34.29678 35.889473 36.500488 35.486757 38.292836 C 35.146262 39.708394 34.479101 40.544939 33.487 40.80247 C 33.404037 40.830125 33.288235 40.854322 33.143049 40.875063 C 33.004777 40.88889 32.761073 40.881977 32.413665 40.854322 C 32.073171 40.819754 31.768973 40.740248 31.497614 40.614075 C 31.233169 40.482717 30.966996 40.232099 30.695638 39.865679 C 30.424279 39.49753 30.230699 39.027406 30.111439 38.458763 C 30.17539 38.68864 29.848723 39.198517 29.133166 39.990123 C 28.113411 41.101483 26.946742 41.628644 25.63316 41.573336 C 23.787231 41.490373 22.496118 40.850865 21.75982 39.656542 C 21.016609 38.399997 20.524016 37.043205 20.280312 35.584437 C 20.036607 34.118755 19.887965 32.390357 19.832656 30.397515 C 19.805002 28.634549 19.863768 26.800718 20.008953 24.897752 C 20.008953 24.863184 20.015867 24.74911 20.029694 24.555529 C 20.043521 24.353307 20.052163 24.232319 20.052163 24.190837 C 20.052163 24.149356 20.059077 24.03701 20.072904 23.857257 C 20.086731 23.668861 20.100558 23.547873 20.114385 23.492565 C 20.128212 23.430342 20.148953 23.323182 20.176608 23.169354 C 20.204262 23.010342 20.231916 22.887625 20.259571 22.804662 C 20.287225 22.721699 20.321793 22.617995 20.363275 22.491822 C 20.41167 22.360464 20.46525 22.253303 20.520559 22.17034 C 20.575868 22.078735 20.631176 21.985402 20.686485 21.888611 C 20.741794 21.784908 20.814386 21.689846 20.905992 21.606883 C 21.357103 21.121203 21.915376 20.787622 22.582538 20.607869 C 23.254884 20.419473 23.904762 20.467868 24.530442 20.753054 C 25.009208 21.010585 25.356616 21.4375 25.570938 22.033797 C 25.786987 22.631823 25.873407 23.22812 25.831926 23.826146 C 25.790444 24.422443 25.752419 25.006641 25.717851 25.575284 C 25.717851 25.685902 25.724765 25.843186 25.738592 26.04368 C 25.759333 26.245903 25.818099 26.596767 25.914889 27.096274 C 26.011679 27.588868 26.124025 28.022696 26.24847 28.397758 C 26.379828 28.765907 26.595878 29.092574 26.893162 29.37776 C 27.192175 29.661217 27.525756 29.78739 27.893904 29.751094 C 28.324276 29.723439 28.688968 29.612822 28.98798 29.419241 C 29.285265 29.217019 29.504771 28.924919 29.643043 28.542944 C 29.789957 28.155782 29.890204 27.811831 29.945513 27.512818 C 30.000822 27.213806 30.049217 26.773064 30.090698 26.190594 C 30.133908 25.606395 30.18576 25.189852 30.247983 24.940962 C 30.330946 24.197751 30.598847 23.565157 31.049959 23.04491 C 31.507985 22.517748 32.107739 22.236019 32.85095 22.201451 C 33.614902 22.173797 34.230211 22.4296 34.69515 22.972317 C 35.167003 23.513306 35.462559 24.197751 35.58009 25.023925 C 35.663053 25.53726 35.725276 26.098989 35.766757 26.710842 C 35.809967 27.320966 35.837621 27.849856 35.851449 28.294054 C 35.865276 28.731339 35.886017 29.320723 35.913671 30.063934 C 35.948239 30.800231 35.965523 31.337763 35.965523 31.678257 Z M 20.645003 27.282941 C 20.645003 27.65109 20.8213 27.836029 21.175622 27.836029 C 21.529943 27.836029 21.707968 27.65109 21.707968 27.282941 C 21.707968 26.914793 21.529943 26.731582 21.175622 26.731582 C 20.8213 26.731582 20.645003 26.914793 20.645003 27.282941 Z M 22.779575 22.033797 C 22.94723 21.895525 23.002538 21.726142 22.94723 21.523919 C 22.891921 21.323425 22.762291 21.200709 22.561797 21.159227 C 22.366488 21.117746 22.183278 21.152314 22.008709 21.262931 C 20.9613 22.173797 20.492904 23.54096 20.603522 25.367877 C 20.603522 25.589111 20.700312 25.746396 20.895621 25.836272 C 21.096115 25.919235 21.281054 25.919235 21.44698 25.836272 C 21.61982 25.746396 21.707968 25.589111 21.707968 25.367877 C 21.623277 23.888368 21.981055 22.777008 22.779575 22.033797 Z M 33.267494 40.417037 C 34.664039 39.882963 35.232682 38.660985 34.976879 36.751105 C 34.919842 36.355302 34.69515 36.184191 34.299347 36.241228 C 34.014162 36.296537 33.872433 36.46592 33.872433 36.751105 C 34.072927 38.173577 33.775643 39.042961 32.977123 39.354073 C 32.7749 39.438764 32.653912 39.587406 32.612431 39.801728 C 32.570949 40.017778 32.619344 40.197531 32.757616 40.344445 C 32.902802 40.482717 33.073913 40.506914 33.267494 40.417037 Z M 56.2621 22.075278 C 56.975928 22.617995 57.580868 23.337009 58.073461 24.232319 C 58.572968 25.127629 58.920376 26.074791 59.115685 27.075534 C 59.316179 28.067634 59.404328 29.078747 59.374945 30.105415 C 59.34729 31.126898 59.191735 32.06369 58.906549 32.917519 C 58.282597 34.958757 57.174694 36.576537 55.584568 37.77086 C 54.500863 38.56938 53.453453 39.125924 52.438884 39.438764 C 51.432956 39.749876 50.596412 39.844938 49.92925 39.718765 C 49.262088 39.587406 48.672705 39.409381 48.15937 39.188147 C 47.644308 38.95827 47.276159 38.702467 47.054924 38.417281 L 46.669491 38.031848 C 46.128503 38.96864 45.530477 39.68074 44.877143 40.16642 C 44.225537 40.653828 43.627511 40.895804 43.086522 40.895804 C 42.545534 40.895804 42.030471 40.833581 41.544792 40.709137 C 41.066025 40.57605 40.697877 40.410124 40.440345 40.207901 L 40.013431 39.90716 C 39.271948 39.309134 38.670466 38.166663 38.21244 36.479747 C 37.761328 34.785917 37.476143 32.941716 37.358612 30.948873 C 37.247994 28.957759 37.184043 27.002941 37.170216 25.086148 C 37.156389 23.162441 37.180587 21.561944 37.244537 20.284658 L 37.368982 18.409346 C 37.562563 16.95922 37.878859 15.744157 38.316144 14.764155 C 38.760342 13.778968 39.225281 13.094523 39.71269 12.712547 C 40.19837 12.330571 40.666765 12.064397 41.117877 11.91057 C 41.575903 11.751557 41.947508 11.685878 42.232694 11.713533 L 42.659608 11.796496 C 43.340597 11.768841 43.905783 12.181929 44.356895 13.035757 C 44.81492 13.889586 45.120847 14.94218 45.272946 16.191812 C 45.433687 17.441443 45.554675 18.684162 45.637638 19.919966 C 45.729243 21.155771 45.760354 22.215279 45.7327 23.096762 L 45.68949 24.418986 C 46.913196 22.600711 48.530976 21.4375 50.54456 20.931079 C 52.565057 20.416016 54.469751 20.797992 56.2621 22.075278 Z M 38.139848 18.711816 C 38.139848 19.079965 38.323058 19.263175 38.691207 19.263175 C 39.059355 19.263175 39.244294 19.079965 39.244294 18.711816 C 39.244294 18.336754 39.059355 18.150087 38.691207 18.150087 C 38.323058 18.150087 38.139848 18.336754 38.139848 18.711816 Z M 41.252692 13.379708 C 41.392693 13.20514 41.434174 13.02193 41.378865 12.826621 C 41.323557 12.626127 41.20084 12.505139 41.014173 12.463657 C 40.825778 12.413534 40.635654 12.463657 40.440345 12.608843 C 39.275405 13.747857 38.577132 15.225637 38.347255 17.04564 C 38.291947 17.413789 38.449231 17.638481 38.815651 17.723172 C 39.156146 17.785395 39.354911 17.659222 39.41022 17.34811 C 39.638369 15.695762 40.253678 14.371809 41.252692 13.379708 Z M 49.970732 27.137756 C 49.415916 27.685658 49.137644 28.359733 49.137644 29.158253 C 49.137644 29.956773 49.415916 30.634305 49.970732 31.189121 C 50.525547 31.743937 51.192709 32.022209 51.970488 32.022209 C 52.755181 32.022209 53.432713 31.743937 54.001356 31.189121 C 54.571727 30.634305 54.855184 29.967143 54.855184 29.189364 C 54.855184 28.404672 54.571727 27.72714 54.001356 27.158497 C 53.432713 26.589854 52.755181 26.304668 51.970488 26.304668 C 51.192709 26.304668 50.525547 26.58294 49.970732 27.137756 Z M 55.667531 30.606651 C 55.72284 30.521959 55.715926 30.44591 55.64679 30.376774 C 55.577654 30.307638 55.484321 30.279983 55.365062 30.293811 C 55.254444 30.307638 55.185308 30.36986 55.157654 30.480478 C 54.589011 31.932332 53.477651 32.630605 51.825303 32.573568 C 51.712957 32.573568 51.636907 32.616778 51.595426 32.699741 C 51.553944 32.782704 51.553944 32.876037 51.595426 32.979741 C 51.636907 33.07826 51.712957 33.126655 51.825303 33.126655 C 53.7058 33.181964 54.988271 32.341962 55.667531 30.606651 Z M 79.29646 22.075278 C 80.010288 22.617995 80.615227 23.337009 81.107821 24.232319 C 81.607328 25.127629 81.954736 26.074791 82.150045 27.075534 C 82.350539 28.067634 82.436959 29.078747 82.409304 30.105415 C 82.38165 31.126898 82.226094 32.06369 81.940908 32.917519 C 81.316957 34.958757 80.209054 36.576537 78.618928 37.77086 C 77.535222 38.56938 76.487813 39.125924 75.473243 39.438764 C 74.467316 39.749876 73.630771 39.844938 72.963609 39.718765 C 72.296448 39.587406 71.707064 39.409381 71.19373 39.188147 C 70.678667 38.95827 70.310519 38.702467 70.089284 38.417281 L 69.703851 38.031848 C 69.162862 38.96864 68.564837 39.68074 67.911502 40.16642 C 67.259896 40.653828 66.661871 40.895804 66.120882 40.895804 C 65.579893 40.895804 65.064831 40.833581 64.579151 40.709137 C 64.100385 40.57605 63.732236 40.410124 63.474705 40.207901 L 63.04779 39.90716 C 62.306308 39.309134 61.704825 38.166663 61.2468 36.479747 C 60.795688 34.785917 60.510502 32.941716 60.392971 30.948873 C 60.282354 28.957759 60.218403 27.002941 60.204576 25.086148 C 60.190749 23.162441 60.214946 21.561944 60.278897 20.284658 L 60.403342 18.409346 C 60.596922 16.95922 60.913219 15.744157 61.350504 14.764155 C 61.794702 13.778968 62.259641 13.094523 62.747049 12.712547 C 63.232729 12.330571 63.701125 12.064397 64.152237 11.91057 C 64.610262 11.751557 64.981868 11.685878 65.267053 11.713533 L 65.693968 11.796496 C 66.374957 11.768841 66.940143 12.181929 67.391254 13.035757 C 67.84928 13.889586 68.155206 14.94218 68.307305 16.191812 C 68.468046 17.441443 68.589034 18.684162 68.671997 19.919966 C 68.763602 21.155771 68.794714 22.215279 68.767059 23.096762 L 68.723849 24.418986 C 69.947555 22.600711 71.565336 21.4375 73.578919 20.931079 C 75.599416 20.416016 77.504111 20.797992 79.29646 22.075278 Z M 61.174207 18.711816 C 61.174207 19.079965 61.357417 19.263175 61.725566 19.263175 C 62.093715 19.263175 62.276925 19.079965 62.276925 18.711816 C 62.276925 18.336754 62.093715 18.150087 61.725566 18.150087 C 61.357417 18.150087 61.174207 18.336754 61.174207 18.711816 Z M 64.287052 13.379708 C 64.427052 13.20514 64.468534 13.02193 64.413225 12.826621 C 64.357916 12.626127 64.2352 12.505139 64.048533 12.463657 C 63.860137 12.413534 63.670014 12.463657 63.474705 12.608843 C 62.309765 13.747857 61.611492 15.225637 61.381615 17.04564 C 61.326306 17.413789 61.48359 17.638481 61.850011 17.723172 C 62.190505 17.785395 62.389271 17.659222 62.44458 17.34811 C 62.672728 15.695762 63.288038 14.371809 64.287052 13.379708 Z M 73.005091 27.137756 C 72.450275 27.685658 72.172003 28.359733 72.172003 29.158253 C 72.172003 29.956773 72.450275 30.634305 73.005091 31.189121 C 73.559907 31.743937 74.227068 32.022209 75.004847 32.022209 C 75.78954 32.022209 76.467072 31.743937 77.035715 31.189121 C 77.606086 30.634305 77.889544 29.967143 77.889544 29.189364 C 77.889544 28.404672 77.606086 27.72714 77.035715 27.158497 C 76.467072 26.589854 75.78954 26.304668 75.004847 26.304668 C 74.227068 26.304668 73.559907 26.58294 73.005091 27.137756 Z M 78.701891 30.606651 C 78.757199 30.521959 78.750286 30.44591 78.68115 30.376774 C 78.612014 30.307638 78.518681 30.279983 78.399421 30.293811 C 78.288804 30.307638 78.219668 30.36986 78.192013 30.480478 C 77.62337 31.932332 76.51201 32.630605 74.859662 32.573568 C 74.747316 32.573568 74.671267 32.616778 74.629785 32.699741 C 74.588304 32.782704 74.588304 32.876037 74.629785 32.979741 C 74.671267 33.07826 74.747316 33.126655 74.859662 33.126655 C 76.740159 33.181964 78.02263 32.341962 78.701891 30.606651 Z M 91.884382 16.494281 L 91.925863 36.241228 C 91.898209 36.386413 91.870555 36.55234 91.8429 36.740735 C 91.815246 36.920488 91.706357 37.260983 91.51969 37.76049 C 91.331295 38.254812 91.096232 38.681726 90.811047 39.042961 C 90.525861 39.395554 90.112774 39.715308 89.571785 40.000494 C 89.03771 40.278766 88.41203 40.389383 87.696474 40.334074 C 87.100176 40.278766 86.573015 40.180247 86.113261 40.041975 C 85.662149 39.89679 85.294 39.68074 85.010543 39.395554 C 84.725358 39.112097 84.488567 38.851109 84.3019 38.614318 C 84.122147 38.372343 83.971776 38.045675 83.854245 37.636045 C 83.743628 37.219501 83.672763 36.910118 83.645109 36.709624 C 83.617454 36.507401 83.575973 36.208388 83.520664 35.814314 C 83.465355 34.848139 83.437701 32.927889 83.437701 30.053563 C 83.437701 27.179238 83.451528 24.208121 83.479183 21.138487 L 83.520664 16.494281 C 83.575973 16.466627 83.575973 16.302429 83.520664 16.003416 C 83.465355 15.699218 83.506837 15.306872 83.645109 14.826377 C 83.792023 14.340698 83.968319 13.872302 84.177455 13.42119 C 84.391777 12.963164 84.79795 12.556991 85.395976 12.202669 C 85.992273 11.848348 86.7182 11.658224 87.572029 11.63057 C 87.68956 11.601187 87.846844 11.580446 88.040425 11.566619 C 88.242647 11.545878 88.603883 11.58736 89.12413 11.692792 C 89.651292 11.789582 90.10586 11.979706 90.487836 12.264892 C 90.876726 12.550077 91.220677 13.056498 91.51969 13.785882 C 91.818703 14.508352 91.939691 15.410576 91.884382 16.494281 Z M 84.072023 20.32614 C 84.099678 20.694288 84.298443 20.877499 84.666592 20.877499 C 85.041654 20.877499 85.214494 20.694288 85.18684 20.32614 C 85.041654 18.818977 85.069309 17.069838 85.269803 15.076995 C 85.297457 14.85576 85.217951 14.695019 85.031284 14.598229 C 84.849802 14.494525 84.666592 14.494525 84.478197 14.598229 C 84.298443 14.695019 84.191283 14.85576 84.156715 15.076995 C 83.961406 17.069838 83.933751 18.818977 84.072023 20.32614 Z M 84.208567 22.294785 C 84.208567 22.662934 84.391777 22.846144 84.759926 22.846144 C 85.128074 22.846144 85.311284 22.662934 85.311284 22.294785 C 85.311284 21.919723 85.128074 21.733056 84.759926 21.733056 C 84.391777 21.733056 84.208567 21.919723 84.208567 22.294785 Z M 88.21845 39.656542 C 89.099933 39.343702 89.751539 38.840739 90.176725 38.145923 C 90.600182 37.445921 90.755738 36.640488 90.645121 35.729622 C 90.645121 35.501474 90.543145 35.337276 90.342651 35.240486 C 90.147342 35.136782 89.964132 35.136782 89.791292 35.240486 C 89.623637 35.337276 89.540674 35.501474 89.540674 35.729622 C 89.678946 37.181477 89.137958 38.132095 87.91598 38.583207 C 87.713758 38.674812 87.59277 38.826911 87.551288 39.042961 C 87.509807 39.250369 87.558202 39.426665 87.696474 39.573579 C 87.843387 39.711851 88.016227 39.739505 88.21845 39.656542 Z M 105.274281 34.021965 C 106.017492 33.821471 106.606876 33.771347 107.04416 33.87678 C 107.488359 33.97357 107.808112 34.163694 108.003421 34.448879 C 108.203915 34.734065 108.333545 35.033078 108.388854 35.344189 C 108.444163 35.65703 108.45799 35.928388 108.430335 36.156537 L 108.388854 36.541969 C 107.937742 37.618761 107.388112 38.527899 106.743419 39.27111 C 106.103912 40.007407 105.457491 40.541482 104.805885 40.875063 C 104.152551 41.20173 103.476747 41.436792 102.775017 41.583706 C 102.080201 41.721978 101.433781 41.749632 100.837483 41.666669 C 100.239458 41.576792 99.698469 41.483459 99.212789 41.38494 C 98.734023 41.281236 98.352047 41.174076 98.066861 41.063458 L 97.681429 40.843952 C 96.8276 40.475803 96.094759 39.924444 95.484635 39.188147 C 94.872782 38.444935 94.418213 37.646416 94.1192 36.792587 C 93.821916 35.938758 93.578212 35.036535 93.389816 34.084187 C 93.210063 33.133569 93.120186 32.224431 93.120186 31.355047 C 93.120186 30.487391 93.134014 29.706155 93.161668 29.013068 C 93.189322 28.311338 93.230804 27.749609 93.286113 27.324423 L 93.422656 26.690101 C 94.241917 23.330095 96.074019 21.392561 98.92069 20.877499 C 99.942173 20.711572 100.93773 20.81182 101.910818 21.179968 C 102.958228 21.575771 103.82934 22.267131 104.524156 23.252317 C 105.225886 24.232319 105.55601 25.310839 105.514528 26.491335 C 105.471318 27.671831 104.978725 28.648376 104.035019 29.419241 C 103.896748 29.529859 103.454278 29.754551 102.712795 30.095045 C 101.976498 30.435539 101.508102 30.834799 101.305879 31.292825 C 101.139953 31.743937 101.133039 32.214061 101.285138 32.699741 C 101.444151 33.18542 101.722423 33.557026 102.118226 33.814557 C 102.861437 34.348632 103.914032 34.417768 105.274281 34.021965 Z M 93.891052 27.929362 C 93.891052 28.297511 94.067348 28.480721 94.42167 28.480721 C 94.775992 28.480721 94.952288 28.297511 94.952288 27.929362 C 94.952288 27.5543 94.775992 27.367633 94.42167 27.367633 C 94.067348 27.367633 93.891052 27.5543 93.891052 27.929362 Z M 95.505376 26.304668 C 95.873524 24.908123 96.813773 23.884911 98.327849 23.231577 C 98.52143 23.114046 98.61822 22.965403 98.61822 22.783922 C 98.61822 22.597255 98.524887 22.43997 98.33822 22.315526 C 98.156738 22.184167 97.966614 22.163427 97.764392 22.253303 C 96.001426 23.04491 94.893523 24.294541 94.442411 26.002199 C 94.387102 26.232075 94.435497 26.418742 94.587596 26.565656 C 94.748337 26.703928 94.924634 26.752323 95.119943 26.710842 C 95.320437 26.662447 95.450067 26.525903 95.505376 26.304668 Z M 97.859454 25.877754 C 97.859454 26.418742 98.056491 26.887138 98.452294 27.282941 C 98.848097 27.678745 99.323407 27.87751 99.879951 27.87751 C 100.434767 27.87751 100.903162 27.678745 101.285138 27.282941 C 101.674028 26.887138 101.869337 26.411829 101.869337 25.857013 C 101.869337 25.300469 101.674028 24.832073 101.285138 24.450097 C 100.903162 24.061208 100.427853 23.867627 99.85921 23.867627 C 99.491061 23.867627 99.15748 23.954047 98.858468 24.128615 C 98.559455 24.294541 98.317479 24.534789 98.129084 24.8459 C 97.94933 25.15874 97.859454 25.502692 97.859454 25.877754 Z M 107.408852 36.87555 C 107.464161 36.654315 107.412309 36.472833 107.253296 36.334562 C 107.101197 36.187648 106.923172 36.135796 106.722678 36.177277 C 106.527369 36.220487 106.402925 36.355302 106.347616 36.583451 C 106.034776 37.777774 105.26391 38.702467 104.035019 39.354073 C 103.839711 39.466419 103.74292 39.615061 103.74292 39.801728 C 103.74292 39.990123 103.832797 40.149136 104.014279 40.282222 C 104.200946 40.406667 104.396255 40.410124 104.596749 40.292593 C 106.103912 39.528641 107.040704 38.389627 107.408852 36.87555 Z M 107.408852 36.87555 " stroke="#000000" stroke-width="0.586667" stroke-opacity="1" stroke-miterlimit="4"/><g fill="#b9e5ff" fill-opacity="1"><g transform="translate(27.489886, 73.444747)"><g><path d="M 31.046875 -36.4375 C 33.035156 -36.5 34.847656 -36.03125 36.484375 -35.03125 C 38.128906 -34.039062 39.445312 -32.722656 40.4375 -31.078125 C 41.4375 -29.441406 42.207031 -27.644531 42.75 -25.6875 C 43.300781 -23.726562 43.523438 -21.753906 43.421875 -19.765625 C 43.328125 -17.773438 42.925781 -16.039062 42.21875 -14.5625 C 42.09375 -14.175781 41.867188 -13.675781 41.546875 -13.0625 C 41.222656 -12.445312 40.421875 -11.382812 39.140625 -9.875 C 37.859375 -8.363281 36.425781 -7.078125 34.84375 -6.015625 C 33.269531 -4.960938 31.066406 -4.097656 28.234375 -3.421875 C 25.410156 -2.742188 22.363281 -2.597656 19.09375 -2.984375 C 18.894531 -2.984375 18.632812 -2.984375 18.3125 -2.984375 C 17.988281 -2.984375 17.34375 -3.0625 16.375 -3.21875 C 15.414062 -3.382812 14.46875 -3.628906 13.53125 -3.953125 C 12.601562 -4.273438 11.5625 -4.789062 10.40625 -5.5 C 9.25 -6.207031 8.222656 -7.070312 7.328125 -8.09375 C 6.429688 -9.125 5.59375 -10.457031 4.8125 -12.09375 C 4.039062 -13.738281 3.460938 -15.617188 3.078125 -17.734375 C 1.222656 -30.015625 0.875 -42.484375 2.03125 -55.140625 C 2.34375 -59.066406 3.046875 -62.054688 4.140625 -64.109375 C 6.203125 -67.898438 9.800781 -70.117188 14.9375 -70.765625 C 15.257812 -70.765625 15.691406 -70.796875 16.234375 -70.859375 C 16.785156 -70.921875 17.816406 -70.9375 19.328125 -70.90625 C 20.835938 -70.875 22.25 -70.757812 23.5625 -70.5625 C 24.882812 -70.375 26.300781 -69.988281 27.8125 -69.40625 C 29.320312 -68.832031 30.523438 -68.0625 31.421875 -67.09375 C 31.492188 -66.96875 31.625 -66.820312 31.8125 -66.65625 C 32.007812 -66.5 32.363281 -66.113281 32.875 -65.5 C 33.382812 -64.894531 33.816406 -64.238281 34.171875 -63.53125 C 34.523438 -62.820312 34.972656 -61.90625 35.515625 -60.78125 C 36.066406 -59.65625 36.4375 -58.484375 36.625 -57.265625 C 36.820312 -56.046875 36.984375 -54.613281 37.109375 -52.96875 C 37.242188 -51.332031 37.085938 -49.644531 36.640625 -47.90625 C 36.640625 -47.394531 36.554688 -46.722656 36.390625 -45.890625 C 36.234375 -45.054688 35.6875 -43.609375 34.75 -41.546875 C 33.820312 -39.492188 32.585938 -37.789062 31.046875 -36.4375 Z M 6.5625 -42.515625 C 6.875 -42.835938 7.015625 -43.222656 6.984375 -43.671875 C 6.953125 -44.117188 6.742188 -44.503906 6.359375 -44.828125 C 6.234375 -45.023438 6.234375 -45.441406 6.359375 -46.078125 C 6.492188 -46.523438 6.429688 -46.941406 6.171875 -47.328125 C 5.910156 -47.710938 5.554688 -47.972656 5.109375 -48.109375 C 4.785156 -48.171875 4.492188 -48.171875 4.234375 -48.109375 C 3.984375 -48.046875 3.742188 -47.898438 3.515625 -47.671875 C 3.296875 -47.441406 3.148438 -47.171875 3.078125 -46.859375 C 2.628906 -44.859375 3.015625 -43.347656 4.234375 -42.328125 C 4.554688 -42.003906 4.910156 -41.84375 5.296875 -41.84375 C 5.816406 -41.84375 6.238281 -42.066406 6.5625 -42.515625 Z M 11.671875 -64.5 C 11.984375 -64.882812 12.109375 -65.300781 12.046875 -65.75 C 11.984375 -66.195312 11.757812 -66.566406 11.375 -66.859375 C 10.988281 -67.148438 10.570312 -67.257812 10.125 -67.1875 C 9.675781 -67.125 9.289062 -66.898438 8.96875 -66.515625 C 8.644531 -66.066406 8.238281 -65.441406 7.75 -64.640625 C 7.269531 -63.835938 6.582031 -62.28125 5.6875 -59.96875 C 4.789062 -57.65625 4.179688 -55.304688 3.859375 -52.921875 C 3.859375 -52.472656 3.984375 -52.054688 4.234375 -51.671875 C 4.492188 -51.285156 4.882812 -51.0625 5.40625 -51 C 5.46875 -51 5.53125 -51 5.59375 -51 C 5.976562 -51 6.332031 -51.140625 6.65625 -51.421875 C 6.976562 -51.710938 7.171875 -52.085938 7.234375 -52.546875 C 7.484375 -54.597656 8.007812 -56.664062 8.8125 -58.75 C 9.625 -60.84375 10.238281 -62.242188 10.65625 -62.953125 C 11.070312 -63.660156 11.410156 -64.175781 11.671875 -64.5 Z M 17.6875 -49.359375 C 18.550781 -48.523438 19.578125 -48.109375 20.765625 -48.109375 C 21.960938 -48.109375 22.992188 -48.523438 23.859375 -49.359375 C 24.722656 -50.191406 25.15625 -51.21875 25.15625 -52.4375 C 25.15625 -53.21875 24.960938 -53.941406 24.578125 -54.609375 C 24.191406 -55.285156 23.660156 -55.832031 22.984375 -56.25 C 22.316406 -56.664062 21.566406 -56.875 20.734375 -56.875 C 19.566406 -56.875 18.550781 -56.441406 17.6875 -55.578125 C 16.820312 -54.710938 16.390625 -53.664062 16.390625 -52.4375 C 16.390625 -51.21875 16.820312 -50.191406 17.6875 -49.359375 Z M 30.40625 -24.484375 C 29.539062 -25.316406 28.515625 -25.734375 27.328125 -25.734375 C 26.140625 -25.734375 25.109375 -25.316406 24.234375 -24.484375 C 23.367188 -23.648438 22.9375 -22.625 22.9375 -21.40625 C 22.9375 -20.1875 23.367188 -19.140625 24.234375 -18.265625 C 25.109375 -17.398438 26.140625 -16.96875 27.328125 -16.96875 C 28.515625 -16.96875 29.539062 -17.398438 30.40625 -18.265625 C 31.28125 -19.140625 31.71875 -20.1875 31.71875 -21.40625 C 31.71875 -22.625 31.28125 -23.648438 30.40625 -24.484375 Z M 34.90625 -18.890625 C 34.96875 -19.535156 34.691406 -19.890625 34.078125 -19.953125 C 33.460938 -20.015625 33.125 -19.726562 33.0625 -19.09375 C 32.8125 -17.476562 32.070312 -16.253906 30.84375 -15.421875 C 29.5 -14.460938 27.640625 -14.207031 25.265625 -14.65625 C 24.679688 -14.78125 24.320312 -14.535156 24.1875 -13.921875 C 24.0625 -13.316406 24.289062 -12.953125 24.875 -12.828125 C 25.832031 -12.628906 26.695312 -12.53125 27.46875 -12.53125 C 29.269531 -12.53125 30.78125 -12.976562 32 -13.875 C 33.675781 -15.101562 34.644531 -16.773438 34.90625 -18.890625 Z M 34.90625 -18.890625 "/></g></g></g><g fill="#b9e5ff" fill-opacity="1"><g transform="translate(71.064816, 73.444747)"><g><path d="M 37.6875 -23.328125 C 37.882812 -17.410156 37.535156 -12.429688 36.640625 -8.390625 C 35.867188 -5.171875 34.359375 -3.273438 32.109375 -2.703125 C 31.910156 -2.640625 31.648438 -2.585938 31.328125 -2.546875 C 31.003906 -2.515625 30.457031 -2.53125 29.6875 -2.59375 C 28.914062 -2.664062 28.222656 -2.84375 27.609375 -3.125 C 27.003906 -3.414062 26.394531 -3.976562 25.78125 -4.8125 C 25.175781 -5.65625 24.742188 -6.71875 24.484375 -8 C 24.617188 -7.488281 23.878906 -6.332031 22.265625 -4.53125 C 19.953125 -2.019531 17.316406 -0.832031 14.359375 -0.96875 C 10.179688 -1.15625 7.257812 -2.597656 5.59375 -5.296875 C 3.914062 -8.128906 2.804688 -11.195312 2.265625 -14.5 C 1.722656 -17.8125 1.382812 -21.71875 1.25 -26.21875 C 1.1875 -30.207031 1.316406 -34.351562 1.640625 -38.65625 C 1.640625 -38.71875 1.65625 -38.972656 1.6875 -39.421875 C 1.71875 -39.878906 1.734375 -40.15625 1.734375 -40.25 C 1.734375 -40.34375 1.75 -40.597656 1.78125 -41.015625 C 1.8125 -41.429688 1.84375 -41.703125 1.875 -41.828125 C 1.90625 -41.960938 1.953125 -42.207031 2.015625 -42.5625 C 2.085938 -42.914062 2.15625 -43.1875 2.21875 -43.375 C 2.28125 -43.570312 2.359375 -43.816406 2.453125 -44.109375 C 2.554688 -44.398438 2.671875 -44.640625 2.796875 -44.828125 C 2.921875 -45.023438 3.046875 -45.234375 3.171875 -45.453125 C 3.304688 -45.679688 3.46875 -45.890625 3.65625 -46.078125 C 4.6875 -47.171875 5.957031 -47.925781 7.46875 -48.34375 C 8.976562 -48.757812 10.441406 -48.648438 11.859375 -48.015625 C 12.953125 -47.429688 13.738281 -46.460938 14.21875 -45.109375 C 14.695312 -43.765625 14.890625 -42.414062 14.796875 -41.0625 C 14.703125 -39.71875 14.625 -38.398438 14.5625 -37.109375 C 14.5625 -36.859375 14.578125 -36.503906 14.609375 -36.046875 C 14.640625 -35.597656 14.765625 -34.8125 14.984375 -33.6875 C 15.210938 -32.5625 15.472656 -31.582031 15.765625 -30.75 C 16.054688 -29.914062 16.535156 -29.175781 17.203125 -28.53125 C 17.878906 -27.894531 18.632812 -27.609375 19.46875 -27.671875 C 20.4375 -27.734375 21.253906 -27.988281 21.921875 -28.4375 C 22.597656 -28.882812 23.097656 -29.539062 23.421875 -30.40625 C 23.742188 -31.28125 23.96875 -32.050781 24.09375 -32.71875 C 24.226562 -33.394531 24.34375 -34.390625 24.4375 -35.703125 C 24.53125 -37.023438 24.644531 -37.976562 24.78125 -38.5625 C 24.96875 -40.226562 25.578125 -41.65625 26.609375 -42.84375 C 27.640625 -44.039062 28.988281 -44.671875 30.65625 -44.734375 C 32.394531 -44.796875 33.789062 -44.21875 34.84375 -43 C 35.90625 -41.78125 36.566406 -40.238281 36.828125 -38.375 C 37.015625 -37.21875 37.15625 -35.945312 37.25 -34.5625 C 37.351562 -33.175781 37.421875 -31.984375 37.453125 -30.984375 C 37.484375 -29.992188 37.53125 -28.660156 37.59375 -26.984375 C 37.65625 -25.316406 37.6875 -24.097656 37.6875 -23.328125 Z M 3.078125 -33.25 C 3.078125 -32.414062 3.476562 -32 4.28125 -32 C 5.09375 -32 5.5 -32.414062 5.5 -33.25 C 5.5 -34.09375 5.09375 -34.515625 4.28125 -34.515625 C 3.476562 -34.515625 3.078125 -34.09375 3.078125 -33.25 Z M 7.90625 -45.125 C 8.289062 -45.4375 8.414062 -45.816406 8.28125 -46.265625 C 8.15625 -46.722656 7.867188 -47 7.421875 -47.09375 C 6.972656 -47.1875 6.554688 -47.109375 6.171875 -46.859375 C 3.796875 -44.796875 2.734375 -41.707031 2.984375 -37.59375 C 2.984375 -37.082031 3.207031 -36.726562 3.65625 -36.53125 C 4.113281 -36.34375 4.535156 -36.34375 4.921875 -36.53125 C 5.304688 -36.726562 5.5 -37.082031 5.5 -37.59375 C 5.300781 -40.9375 6.101562 -43.445312 7.90625 -45.125 Z M 31.625 -3.5625 C 34.769531 -4.789062 36.054688 -7.554688 35.484375 -11.859375 C 35.347656 -12.753906 34.832031 -13.140625 33.9375 -13.015625 C 33.289062 -12.890625 32.96875 -12.503906 32.96875 -11.859375 C 33.414062 -8.640625 32.742188 -6.679688 30.953125 -5.984375 C 30.492188 -5.785156 30.21875 -5.441406 30.125 -4.953125 C 30.03125 -4.472656 30.144531 -4.070312 30.46875 -3.75 C 30.789062 -3.4375 31.175781 -3.375 31.625 -3.5625 Z M 31.625 -3.5625 "/></g></g></g><g fill="#b9e5ff" fill-opacity="1"><g transform="translate(110.108733, 73.444747)"><g><path d="M 44.546875 -45.015625 C 46.148438 -43.796875 47.515625 -42.171875 48.640625 -40.140625 C 49.765625 -38.117188 50.550781 -35.984375 51 -33.734375 C 51.445312 -31.492188 51.640625 -29.210938 51.578125 -26.890625 C 51.515625 -24.578125 51.160156 -22.457031 50.515625 -20.53125 C 49.097656 -15.90625 46.59375 -12.242188 43 -9.546875 C 40.550781 -7.742188 38.1875 -6.488281 35.90625 -5.78125 C 33.625 -5.070312 31.726562 -4.863281 30.21875 -5.15625 C 28.707031 -5.445312 27.375 -5.847656 26.21875 -6.359375 C 25.0625 -6.878906 24.226562 -7.457031 23.71875 -8.09375 L 22.84375 -8.96875 C 21.625 -6.84375 20.273438 -5.234375 18.796875 -4.140625 C 17.316406 -3.046875 15.96875 -2.5 14.75 -2.5 C 13.53125 -2.5 12.375 -2.644531 11.28125 -2.9375 C 10.1875 -3.226562 9.347656 -3.597656 8.765625 -4.046875 L 7.8125 -4.71875 C 6.132812 -6.070312 4.78125 -8.660156 3.75 -12.484375 C 2.726562 -16.304688 2.085938 -20.46875 1.828125 -24.96875 C 1.578125 -29.46875 1.429688 -33.882812 1.390625 -38.21875 C 1.359375 -42.5625 1.410156 -46.179688 1.546875 -49.078125 L 1.828125 -53.3125 C 2.273438 -56.59375 3 -59.335938 4 -61.546875 C 5 -63.765625 6.039062 -65.304688 7.125 -66.171875 C 8.21875 -67.046875 9.28125 -67.660156 10.3125 -68.015625 C 11.34375 -68.367188 12.179688 -68.515625 12.828125 -68.453125 L 13.78125 -68.25 C 15.320312 -68.320312 16.609375 -67.390625 17.640625 -65.453125 C 18.671875 -63.523438 19.363281 -61.144531 19.71875 -58.3125 C 20.070312 -55.488281 20.34375 -52.679688 20.53125 -49.890625 C 20.726562 -47.097656 20.796875 -44.703125 20.734375 -42.703125 L 20.625 -39.71875 C 23.394531 -43.832031 27.0625 -46.46875 31.625 -47.625 C 36.1875 -48.78125 40.492188 -47.910156 44.546875 -45.015625 Z M 3.5625 -52.640625 C 3.5625 -51.804688 3.976562 -51.390625 4.8125 -51.390625 C 5.65625 -51.390625 6.078125 -51.804688 6.078125 -52.640625 C 6.078125 -53.472656 5.65625 -53.890625 4.8125 -53.890625 C 3.976562 -53.890625 3.5625 -53.472656 3.5625 -52.640625 Z M 10.609375 -64.6875 C 10.929688 -65.070312 11.023438 -65.488281 10.890625 -65.9375 C 10.765625 -66.382812 10.492188 -66.65625 10.078125 -66.75 C 9.660156 -66.851562 9.222656 -66.742188 8.765625 -66.421875 C 6.128906 -63.847656 4.554688 -60.503906 4.046875 -56.390625 C 3.921875 -55.554688 4.273438 -55.046875 5.109375 -54.859375 C 5.878906 -54.722656 6.328125 -55.007812 6.453125 -55.71875 C 6.972656 -59.445312 8.359375 -62.4375 10.609375 -64.6875 Z M 30.3125 -33.59375 C 29.0625 -32.34375 28.4375 -30.816406 28.4375 -29.015625 C 28.4375 -27.210938 29.0625 -25.6875 30.3125 -24.4375 C 31.570312 -23.1875 33.082031 -22.5625 34.84375 -22.5625 C 36.613281 -22.5625 38.140625 -23.1875 39.421875 -24.4375 C 40.710938 -25.6875 41.359375 -27.195312 41.359375 -28.96875 C 41.359375 -30.738281 40.710938 -32.265625 39.421875 -33.546875 C 38.140625 -34.835938 36.613281 -35.484375 34.84375 -35.484375 C 33.082031 -35.484375 31.570312 -34.851562 30.3125 -33.59375 Z M 43.1875 -25.734375 C 43.3125 -25.929688 43.296875 -26.109375 43.140625 -26.265625 C 42.984375 -26.429688 42.773438 -26.5 42.515625 -26.46875 C 42.253906 -26.4375 42.09375 -26.289062 42.03125 -26.03125 C 40.75 -22.75 38.242188 -21.175781 34.515625 -21.3125 C 34.253906 -21.3125 34.078125 -21.210938 33.984375 -21.015625 C 33.890625 -20.828125 33.890625 -20.617188 33.984375 -20.390625 C 34.078125 -20.160156 34.253906 -20.046875 34.515625 -20.046875 C 38.753906 -19.921875 41.644531 -21.816406 43.1875 -25.734375 Z M 43.1875 -25.734375 "/></g></g></g><g fill="#b9e5ff" fill-opacity="1"><g transform="translate(162.167265, 73.444747)"><g><path d="M 44.546875 -45.015625 C 46.148438 -43.796875 47.515625 -42.171875 48.640625 -40.140625 C 49.765625 -38.117188 50.550781 -35.984375 51 -33.734375 C 51.445312 -31.492188 51.640625 -29.210938 51.578125 -26.890625 C 51.515625 -24.578125 51.160156 -22.457031 50.515625 -20.53125 C 49.097656 -15.90625 46.59375 -12.242188 43 -9.546875 C 40.550781 -7.742188 38.1875 -6.488281 35.90625 -5.78125 C 33.625 -5.070312 31.726562 -4.863281 30.21875 -5.15625 C 28.707031 -5.445312 27.375 -5.847656 26.21875 -6.359375 C 25.0625 -6.878906 24.226562 -7.457031 23.71875 -8.09375 L 22.84375 -8.96875 C 21.625 -6.84375 20.273438 -5.234375 18.796875 -4.140625 C 17.316406 -3.046875 15.96875 -2.5 14.75 -2.5 C 13.53125 -2.5 12.375 -2.644531 11.28125 -2.9375 C 10.1875 -3.226562 9.347656 -3.597656 8.765625 -4.046875 L 7.8125 -4.71875 C 6.132812 -6.070312 4.78125 -8.660156 3.75 -12.484375 C 2.726562 -16.304688 2.085938 -20.46875 1.828125 -24.96875 C 1.578125 -29.46875 1.429688 -33.882812 1.390625 -38.21875 C 1.359375 -42.5625 1.410156 -46.179688 1.546875 -49.078125 L 1.828125 -53.3125 C 2.273438 -56.59375 3 -59.335938 4 -61.546875 C 5 -63.765625 6.039062 -65.304688 7.125 -66.171875 C 8.21875 -67.046875 9.28125 -67.660156 10.3125 -68.015625 C 11.34375 -68.367188 12.179688 -68.515625 12.828125 -68.453125 L 13.78125 -68.25 C 15.320312 -68.320312 16.609375 -67.390625 17.640625 -65.453125 C 18.671875 -63.523438 19.363281 -61.144531 19.71875 -58.3125 C 20.070312 -55.488281 20.34375 -52.679688 20.53125 -49.890625 C 20.726562 -47.097656 20.796875 -44.703125 20.734375 -42.703125 L 20.625 -39.71875 C 23.394531 -43.832031 27.0625 -46.46875 31.625 -47.625 C 36.1875 -48.78125 40.492188 -47.910156 44.546875 -45.015625 Z M 3.5625 -52.640625 C 3.5625 -51.804688 3.976562 -51.390625 4.8125 -51.390625 C 5.65625 -51.390625 6.078125 -51.804688 6.078125 -52.640625 C 6.078125 -53.472656 5.65625 -53.890625 4.8125 -53.890625 C 3.976562 -53.890625 3.5625 -53.472656 3.5625 -52.640625 Z M 10.609375 -64.6875 C 10.929688 -65.070312 11.023438 -65.488281 10.890625 -65.9375 C 10.765625 -66.382812 10.492188 -66.65625 10.078125 -66.75 C 9.660156 -66.851562 9.222656 -66.742188 8.765625 -66.421875 C 6.128906 -63.847656 4.554688 -60.503906 4.046875 -56.390625 C 3.921875 -55.554688 4.273438 -55.046875 5.109375 -54.859375 C 5.878906 -54.722656 6.328125 -55.007812 6.453125 -55.71875 C 6.972656 -59.445312 8.359375 -62.4375 10.609375 -64.6875 Z M 30.3125 -33.59375 C 29.0625 -32.34375 28.4375 -30.816406 28.4375 -29.015625 C 28.4375 -27.210938 29.0625 -25.6875 30.3125 -24.4375 C 31.570312 -23.1875 33.082031 -22.5625 34.84375 -22.5625 C 36.613281 -22.5625 38.140625 -23.1875 39.421875 -24.4375 C 40.710938 -25.6875 41.359375 -27.195312 41.359375 -28.96875 C 41.359375 -30.738281 40.710938 -32.265625 39.421875 -33.546875 C 38.140625 -34.835938 36.613281 -35.484375 34.84375 -35.484375 C 33.082031 -35.484375 31.570312 -34.851562 30.3125 -33.59375 Z M 43.1875 -25.734375 C 43.3125 -25.929688 43.296875 -26.109375 43.140625 -26.265625 C 42.984375 -26.429688 42.773438 -26.5 42.515625 -26.46875 C 42.253906 -26.4375 42.09375 -26.289062 42.03125 -26.03125 C 40.75 -22.75 38.242188 -21.175781 34.515625 -21.3125 C 34.253906 -21.3125 34.078125 -21.210938 33.984375 -21.015625 C 33.890625 -20.828125 33.890625 -20.617188 33.984375 -20.390625 C 34.078125 -20.160156 34.253906 -20.046875 34.515625 -20.046875 C 38.753906 -19.921875 41.644531 -21.816406 43.1875 -25.734375 Z M 43.1875 -25.734375 "/></g></g></g><g fill="#b9e5ff" fill-opacity="1"><g transform="translate(214.225796, 73.444747)"><g><path d="M 20.921875 -57.65625 L 21.015625 -13.015625 C 20.953125 -12.691406 20.890625 -12.320312 20.828125 -11.90625 C 20.765625 -11.488281 20.519531 -10.71875 20.09375 -9.59375 C 19.675781 -8.46875 19.144531 -7.503906 18.5 -6.703125 C 17.863281 -5.898438 16.929688 -5.175781 15.703125 -4.53125 C 14.484375 -3.882812 13.070312 -3.628906 11.46875 -3.765625 C 10.125 -3.890625 8.9375 -4.113281 7.90625 -4.4375 C 6.875 -4.757812 6.035156 -5.238281 5.390625 -5.875 C 4.753906 -6.519531 4.226562 -7.113281 3.8125 -7.65625 C 3.394531 -8.207031 3.054688 -8.945312 2.796875 -9.875 C 2.535156 -10.8125 2.375 -11.503906 2.3125 -11.953125 C 2.25 -12.398438 2.15625 -13.078125 2.03125 -13.984375 C 1.894531 -16.160156 1.828125 -20.492188 1.828125 -26.984375 C 1.828125 -33.484375 1.859375 -40.203125 1.921875 -47.140625 L 2.03125 -57.65625 C 2.15625 -57.71875 2.148438 -58.082031 2.015625 -58.75 C 1.890625 -59.425781 1.988281 -60.3125 2.3125 -61.40625 C 2.632812 -62.5 3.035156 -63.5625 3.515625 -64.59375 C 3.992188 -65.625 4.910156 -66.539062 6.265625 -67.34375 C 7.617188 -68.144531 9.257812 -68.578125 11.1875 -68.640625 C 11.4375 -68.703125 11.785156 -68.75 12.234375 -68.78125 C 12.691406 -68.8125 13.515625 -68.710938 14.703125 -68.484375 C 15.890625 -68.265625 16.914062 -67.832031 17.78125 -67.1875 C 18.65625 -66.550781 19.425781 -65.410156 20.09375 -63.765625 C 20.769531 -62.128906 21.046875 -60.09375 20.921875 -57.65625 Z M 3.28125 -48.96875 C 3.34375 -48.132812 3.789062 -47.71875 4.625 -47.71875 C 5.457031 -47.71875 5.84375 -48.132812 5.78125 -48.96875 C 5.457031 -52.375 5.523438 -56.328125 5.984375 -60.828125 C 6.046875 -61.347656 5.863281 -61.71875 5.4375 -61.9375 C 5.019531 -62.164062 4.601562 -62.164062 4.1875 -61.9375 C 3.769531 -61.71875 3.53125 -61.347656 3.46875 -60.828125 C 3.019531 -56.328125 2.957031 -52.375 3.28125 -48.96875 Z M 3.5625 -44.53125 C 3.5625 -43.695312 3.976562 -43.28125 4.8125 -43.28125 C 5.65625 -43.28125 6.078125 -43.695312 6.078125 -44.53125 C 6.078125 -45.375 5.65625 -45.796875 4.8125 -45.796875 C 3.976562 -45.796875 3.5625 -45.375 3.5625 -44.53125 Z M 12.625 -5.296875 C 14.625 -6.003906 16.101562 -7.144531 17.0625 -8.71875 C 18.03125 -10.300781 18.382812 -12.117188 18.125 -14.171875 C 18.125 -14.679688 17.898438 -15.050781 17.453125 -15.28125 C 17.003906 -15.507812 16.585938 -15.507812 16.203125 -15.28125 C 15.816406 -15.050781 15.625 -14.679688 15.625 -14.171875 C 15.9375 -10.890625 14.710938 -8.738281 11.953125 -7.71875 C 11.503906 -7.519531 11.226562 -7.179688 11.125 -6.703125 C 11.03125 -6.222656 11.144531 -5.820312 11.46875 -5.5 C 11.789062 -5.175781 12.175781 -5.109375 12.625 -5.296875 Z M 12.625 -5.296875 "/></g></g></g><g fill="#b9e5ff" fill-opacity="1"><g transform="translate(237.073707, 73.444747)"><g><path d="M 28.34375 -18.03125 C 30.007812 -18.476562 31.34375 -18.585938 32.34375 -18.359375 C 33.34375 -18.140625 34.066406 -17.707031 34.515625 -17.0625 C 34.960938 -16.414062 35.25 -15.738281 35.375 -15.03125 C 35.507812 -14.332031 35.546875 -13.722656 35.484375 -13.203125 L 35.375 -12.34375 C 34.351562 -9.894531 33.117188 -7.832031 31.671875 -6.15625 C 30.222656 -4.488281 28.757812 -3.285156 27.28125 -2.546875 C 25.800781 -1.816406 24.273438 -1.289062 22.703125 -0.96875 C 21.128906 -0.644531 19.664062 -0.578125 18.3125 -0.765625 C 16.96875 -0.960938 15.75 -1.171875 14.65625 -1.390625 C 13.5625 -1.617188 12.691406 -1.863281 12.046875 -2.125 L 11.1875 -2.609375 C 9.257812 -3.441406 7.601562 -4.691406 6.21875 -6.359375 C 4.832031 -8.035156 3.800781 -9.835938 3.125 -11.765625 C 2.457031 -13.691406 1.914062 -15.726562 1.5 -17.875 C 1.082031 -20.03125 0.875 -22.085938 0.875 -24.046875 C 0.875 -26.015625 0.90625 -27.785156 0.96875 -29.359375 C 1.03125 -30.929688 1.125 -32.195312 1.25 -33.15625 L 1.546875 -34.609375 C 3.410156 -42.191406 7.554688 -46.5625 13.984375 -47.71875 C 16.296875 -48.101562 18.546875 -47.878906 20.734375 -47.046875 C 23.109375 -46.148438 25.082031 -44.59375 26.65625 -42.375 C 28.226562 -40.15625 28.96875 -37.710938 28.875 -35.046875 C 28.78125 -32.378906 27.671875 -30.175781 25.546875 -28.4375 C 25.222656 -28.175781 24.222656 -27.660156 22.546875 -26.890625 C 20.878906 -26.117188 19.820312 -25.222656 19.375 -24.203125 C 18.988281 -23.171875 18.972656 -22.109375 19.328125 -21.015625 C 19.679688 -19.921875 20.304688 -19.085938 21.203125 -18.515625 C 22.878906 -17.285156 25.257812 -17.125 28.34375 -18.03125 Z M 2.609375 -31.8125 C 2.609375 -30.976562 3.007812 -30.5625 3.8125 -30.5625 C 4.613281 -30.5625 5.015625 -30.976562 5.015625 -31.8125 C 5.015625 -32.644531 4.613281 -33.0625 3.8125 -33.0625 C 3.007812 -33.0625 2.609375 -32.644531 2.609375 -31.8125 Z M 6.265625 -35.484375 C 7.097656 -38.628906 9.21875 -40.941406 12.625 -42.421875 C 13.070312 -42.671875 13.296875 -43.003906 13.296875 -43.421875 C 13.296875 -43.847656 13.085938 -44.203125 12.671875 -44.484375 C 12.253906 -44.773438 11.820312 -44.828125 11.375 -44.640625 C 7.394531 -42.835938 4.890625 -40.007812 3.859375 -36.15625 C 3.722656 -35.632812 3.832031 -35.210938 4.1875 -34.890625 C 4.539062 -34.578125 4.941406 -34.46875 5.390625 -34.5625 C 5.847656 -34.65625 6.140625 -34.960938 6.265625 -35.484375 Z M 11.5625 -36.4375 C 11.5625 -35.21875 12.007812 -34.15625 12.90625 -33.25 C 13.8125 -32.351562 14.890625 -31.90625 16.140625 -31.90625 C 17.398438 -31.90625 18.460938 -32.351562 19.328125 -33.25 C 20.191406 -34.15625 20.625 -35.234375 20.625 -36.484375 C 20.625 -37.742188 20.191406 -38.804688 19.328125 -39.671875 C 18.460938 -40.535156 17.382812 -40.96875 16.09375 -40.96875 C 15.257812 -40.96875 14.503906 -40.773438 13.828125 -40.390625 C 13.160156 -40.003906 12.613281 -39.457031 12.1875 -38.75 C 11.769531 -38.039062 11.5625 -37.269531 11.5625 -36.4375 Z M 33.15625 -11.5625 C 33.289062 -12.082031 33.179688 -12.5 32.828125 -12.8125 C 32.472656 -13.132812 32.070312 -13.25 31.625 -13.15625 C 31.175781 -13.0625 30.882812 -12.757812 30.75 -12.25 C 30.039062 -9.539062 28.304688 -7.453125 25.546875 -5.984375 C 25.097656 -5.722656 24.875 -5.382812 24.875 -4.96875 C 24.875 -4.550781 25.082031 -4.195312 25.5 -3.90625 C 25.914062 -3.613281 26.347656 -3.597656 26.796875 -3.859375 C 30.203125 -5.585938 32.320312 -8.15625 33.15625 -11.5625 Z M 33.15625 -11.5625 "/></g></g></g></svg>