<svg xmlns="http://www.w3.org/2000/svg" xmlns:xlink="http://www.w3.org/1999/xlink" width="500" zoomAndPan="magnify" viewBox="0 0 375 374.999991" height="500" preserveAspectRatio="xMidYMid meet" version="1.0"><defs><clipPath id="1e926724a7"><path d="M 6.847656 13.339844 L 354.753906 13.339844 L 354.753906 361.25 L 6.847656 361.25 Z M 6.847656 13.339844 " clip-rule="nonzero"/></clipPath><clipPath id="c2f22c96c4"><path d="M 180.800781 13.339844 C 84.726562 13.339844 6.847656 91.222656 6.847656 187.292969 C 6.847656 283.367188 84.726562 361.25 180.800781 361.25 C 276.871094 361.25 354.753906 283.367188 354.753906 187.292969 C 354.753906 91.222656 276.871094 13.339844 180.800781 13.339844 Z M 180.800781 13.339844 " clip-rule="nonzero"/></clipPath><clipPath id="fa06cb066f"><path d="M 26.300781 26.472656 L 366.308594 26.472656 L 366.308594 366.480469 L 26.300781 366.480469 Z M 26.300781 26.472656 " clip-rule="nonzero"/></clipPath><clipPath id="3351ea68e7"><path d="M 196.304688 26.472656 C 102.414062 26.472656 26.300781 102.585938 26.300781 196.476562 C 26.300781 290.367188 102.414062 366.480469 196.304688 366.480469 C 290.195312 366.480469 366.308594 290.367188 366.308594 196.476562 C 366.308594 102.585938 290.195312 26.472656 196.304688 26.472656 Z M 196.304688 26.472656 " clip-rule="nonzero"/></clipPath><clipPath id="1d75b6bce5"><path d="M 3 12 L 371 12 L 371 369 L 3 369 Z M 3 12 " clip-rule="nonzero"/></clipPath><clipPath id="b753805a5c"><path d="M -10.40625 11.09375 L 374.933594 0 L 385.402344 363.597656 L 0.0625 374.695312 Z M -10.40625 11.09375 " clip-rule="nonzero"/></clipPath><clipPath id="e39375c598"><path d="M 583.863281 -242.257812 L -95.355469 -222.699219 L -78.085938 377.050781 L 601.132812 357.496094 Z M 583.863281 -242.257812 " clip-rule="nonzero"/></clipPath><clipPath id="73aab0422a"><path d="M 365.285156 6.832031 L -1.53125 17.394531 L 8.753906 374.710938 L 375.574219 364.152344 Z M 365.285156 6.832031 " clip-rule="nonzero"/></clipPath><clipPath id="3a6cf3556f"><path d="M 365.285156 6.832031 L -1.53125 17.394531 L 8.746094 374.339844 L 375.5625 363.78125 Z M 365.285156 6.832031 " clip-rule="nonzero"/></clipPath><clipPath id="afa1a689f1"><path d="M 25 171 L 32 171 L 32 196 L 25 196 Z M 25 171 " clip-rule="nonzero"/></clipPath><clipPath id="988adbb8a7"><path d="M -10.40625 11.09375 L 374.933594 0 L 385.402344 363.597656 L 0.0625 374.695312 Z M -10.40625 11.09375 " clip-rule="nonzero"/></clipPath><clipPath id="2fe1d6d7e8"><path d="M 583.863281 -242.257812 L -95.355469 -222.699219 L -78.085938 377.050781 L 601.132812 357.496094 Z M 583.863281 -242.257812 " clip-rule="nonzero"/></clipPath><clipPath id="39e28688e1"><path d="M 33 35 L 160 35 L 160 151 L 33 151 Z M 33 35 " clip-rule="nonzero"/></clipPath><clipPath id="c6b554a187"><path d="M -10.40625 11.09375 L 374.933594 0 L 385.402344 363.597656 L 0.0625 374.695312 Z M -10.40625 11.09375 " clip-rule="nonzero"/></clipPath><clipPath id="f1e7e798d8"><path d="M 583.863281 -242.257812 L -95.355469 -222.699219 L -78.085938 377.050781 L 601.132812 357.496094 Z M 583.863281 -242.257812 " clip-rule="nonzero"/></clipPath></defs><g clip-path="url(#1e926724a7)"><g clip-path="url(#c2f22c96c4)"><path fill="#b9e5ff" d="M 6.847656 13.339844 L 354.753906 13.339844 L 354.753906 361.25 L 6.847656 361.25 Z M 6.847656 13.339844 " fill-opacity="1" fill-rule="nonzero"/></g></g><g clip-path="url(#fa06cb066f)"><g clip-path="url(#3351ea68e7)"><path fill="#b9e5ff" d="M 26.300781 26.472656 L 366.308594 26.472656 L 366.308594 366.480469 L 26.300781 366.480469 Z M 26.300781 26.472656 " fill-opacity="1" fill-rule="nonzero"/></g></g><g clip-path="url(#1d75b6bce5)"><g clip-path="url(#b753805a5c)"><g clip-path="url(#e39375c598)"><g clip-path="url(#73aab0422a)"><g clip-path="url(#3a6cf3556f)"><path fill="#000000" d="M 11.828125 200.308594 C 17.519531 253.328125 50.160156 303.453125 98.1875 332.863281 C 117.785156 344.859375 139.875 353.371094 161.976562 357.449219 C 185.859375 361.878906 214.507812 360.988281 237.28125 355.214844 C 304.3125 338.195312 352.144531 285 360.59375 218.125 C 362.210938 205.511719 361.8125 184.566406 359.679688 172.199219 C 353.125 134.226562 334.300781 99.335938 305.742188 72.4375 C 280.125 48.1875 247.832031 31.574219 213.4375 24.917969 C 198.195312 21.941406 191.902344 21.511719 172.933594 21.988281 C 156.496094 22.460938 154.382812 22.589844 144.472656 24.648438 C 69.609375 40.050781 17.5625 98.351562 11.402344 173.695312 C 10.597656 183.617188 10.699219 189.554688 11.828125 200.308594 Z M 3.679688 166.40625 C 11.601562 83.367188 76.636719 20.664062 162.777344 13.0625 C 241.023438 6.167969 317.988281 49.625 352.167969 119.984375 C 374.523438 165.972656 376.515625 218.621094 357.609375 263.882812 C 345.539062 292.699219 324.375 318.910156 298.546875 337.0625 C 259.398438 364.476562 209.648438 374.714844 159.277344 365.722656 C 145.761719 363.308594 127.636719 357.550781 114.144531 351.316406 C 56.238281 324.785156 17.1875 274.980469 5.992188 213.449219 C 3.796875 201.292969 2.640625 177.566406 3.679688 166.40625 " fill-opacity="1" fill-rule="evenodd"/></g></g></g></g></g><g clip-path="url(#afa1a689f1)"><g clip-path="url(#988adbb8a7)"><g clip-path="url(#2fe1d6d7e8)"><path fill="#000000" d="M 26.007812 173.480469 C 26.773438 171.613281 29.136719 170.726562 30.460938 171.78125 C 31.300781 172.4375 31.570312 174.753906 31.816406 183.28125 C 32.152344 194.878906 31.734375 196.9375 29.738281 194.125 C 26.960938 190.109375 24.609375 177.070312 26.007812 173.480469 " fill-opacity="1" fill-rule="evenodd"/></g></g></g><g clip-path="url(#39e28688e1)"><g clip-path="url(#c6b554a187)"><g clip-path="url(#f1e7e798d8)"><path fill="#000000" d="M 34.542969 138.074219 C 37.089844 129.332031 46.445312 112.675781 55.980469 100.042969 C 66.566406 85.949219 84.351562 68.230469 96 60.179688 C 102.828125 55.480469 129.796875 41.390625 135.886719 39.371094 C 146.167969 36.003906 155.265625 34.375 158.230469 35.382812 C 158.851562 35.570312 159.355469 36.511719 159.382812 37.398438 C 159.421875 38.761719 158.820312 39.1875 154.488281 40.542969 C 141.976562 44.589844 133.613281 48.175781 119.355469 55.753906 C 98.246094 66.945312 89.34375 73.277344 77.816406 85.417969 C 61.976562 102.054688 49.277344 120.992188 42.203125 138.46875 C 38.441406 147.792969 36.484375 150.921875 34.761719 150.289062 C 33.171875 149.71875 33.054688 143.238281 34.542969 138.074219 " fill-opacity="1" fill-rule="evenodd"/></g></g></g></svg>