<svg xmlns="http://www.w3.org/2000/svg" xmlns:xlink="http://www.w3.org/1999/xlink" width="1080" zoomAndPan="magnify" viewBox="0 0 810 809.999993" height="1080" preserveAspectRatio="xMidYMid meet" version="1.0"><defs><clipPath id="5f0f7e19a5"><path d="M 70 722 L 543 722 L 543 794.074219 L 70 794.074219 Z M 70 722 " clip-rule="nonzero"/></clipPath><clipPath id="55ac49f4da"><path d="M 0 15.574219 L 494 15.574219 L 494 510 L 0 510 Z M 0 15.574219 " clip-rule="nonzero"/></clipPath><clipPath id="42d437aece"><path d="M 67 700 L 393.496094 700 L 393.496094 810 L 67 810 Z M 67 700 " clip-rule="nonzero"/></clipPath><clipPath id="13b9913a77"><path d="M 89.101562 765.601562 C 112.875 760.5 128.699219 741 139.648438 733.800781 C 147.375 728.773438 153.976562 727.050781 160.949219 723.226562 C 167.773438 719.476562 174 714.375 181.050781 711.148438 C 188.175781 707.925781 195.675781 705.601562 203.476562 703.800781 C 211.726562 701.925781 220.800781 700.949219 229.351562 700.425781 C 237.675781 699.898438 245.925781 700.425781 254.023438 700.574219 C 261.898438 700.726562 269.550781 700.425781 277.273438 701.324219 C 285.148438 702.226562 293.175781 703.199219 300.898438 705.976562 C 309.226562 708.976562 316.800781 713.25 325.351562 719.324219 C 336.601562 727.425781 350.023438 741.300781 361.125 752.023438 C 371.175781 761.699219 384.898438 774.375 389.175781 780.675781 C 390.898438 783.226562 391.199219 784.648438 391.800781 786.75 C 392.476562 788.925781 392.851562 791.175781 392.925781 793.351562 C 393.074219 795.601562 392.851562 797.851562 392.476562 800.023438 C 392.023438 802.199219 391.351562 804.375 390.375 806.324219 C 389.476562 808.351562 388.273438 810.300781 386.851562 812.023438 C 385.5 813.75 383.851562 815.324219 382.125 816.675781 C 380.324219 818.023438 378.375 819.148438 376.351562 820.050781 C 374.324219 820.949219 372.148438 821.625 369.976562 822 C 367.726562 822.300781 365.476562 822.449219 363.300781 822.300781 C 361.050781 822.148438 358.800781 821.699219 356.699219 821.023438 C 354.601562 820.351562 352.574219 819.375 350.699219 818.175781 C 348.824219 817.050781 347.023438 815.550781 345.449219 813.976562 C 343.949219 812.398438 342.449219 811.273438 341.398438 808.726562 C 339.523438 803.851562 338.023438 791.101562 339.148438 785.550781 C 339.898438 782.101562 341.625 780 343.425781 777.675781 C 345.300781 775.351562 347.550781 773.25 350.023438 771.601562 C 352.5 769.949219 355.351562 768.675781 358.199219 767.925781 C 361.050781 767.175781 364.199219 766.875 367.125 767.023438 C 370.050781 767.25 373.125 768 375.824219 769.125 C 378.601562 770.175781 381.226562 771.824219 383.476562 773.773438 C 385.648438 775.726562 387.675781 778.125 389.175781 780.675781 C 390.675781 783.226562 391.800781 786.148438 392.398438 789.074219 C 393 791.925781 393.148438 795.074219 392.773438 798 C 392.398438 800.925781 391.574219 803.925781 390.300781 806.625 C 389.023438 809.25 387.226562 811.800781 385.199219 813.976562 C 383.101562 816.074219 380.625 817.949219 378 819.300781 C 375.375 820.648438 372.375 821.625 369.449219 822.074219 C 366.523438 822.449219 363.375 822.449219 360.523438 821.925781 C 357.601562 821.398438 354.601562 820.425781 352.050781 819 C 349.425781 817.574219 346.949219 815.625 345 813.449219 C 342.976562 811.351562 341.25 808.726562 340.050781 806.023438 C 338.851562 803.324219 338.023438 800.25 337.726562 797.324219 C 337.5 794.398438 337.648438 791.25 338.324219 788.398438 C 339 785.550781 340.199219 782.625 341.773438 780.148438 C 343.273438 777.601562 345.375 775.273438 347.625 773.398438 C 349.875 771.523438 352.574219 769.875 355.351562 768.824219 C 358.125 767.773438 361.199219 767.175781 364.125 767.023438 C 367.050781 766.875 370.199219 767.25 373.050781 768.074219 C 375.824219 768.898438 378.675781 770.25 381.074219 771.976562 C 383.550781 773.625 385.800781 775.800781 387.523438 778.199219 C 389.25 780.523438 390.75 783.375 391.648438 786.148438 C 392.550781 788.925781 393.148438 795 393 795 C 392.773438 795.074219 388.875 780.75 389.175781 780.675781 C 389.324219 780.601562 391.199219 784.648438 391.800781 786.75 C 392.476562 788.925781 392.851562 791.175781 392.925781 793.351562 C 393.074219 795.601562 392.851562 797.851562 392.476562 800.023438 C 392.023438 802.199219 391.351562 804.375 390.375 806.324219 C 389.476562 808.351562 388.273438 810.300781 386.851562 812.023438 C 385.5 813.75 383.851562 815.324219 382.125 816.675781 C 380.324219 818.023438 378.375 819.148438 376.351562 820.050781 C 374.324219 820.949219 372.148438 821.625 369.976562 822 C 367.800781 822.300781 365.476562 822.449219 363.300781 822.300781 C 361.050781 822.148438 358.800781 821.699219 356.699219 821.023438 C 354.601562 820.351562 352.574219 819.375 350.699219 818.175781 C 348.824219 817.050781 347.023438 815.550781 345.449219 813.976562 C 343.949219 812.398438 342.601562 809.175781 341.398438 808.726562 C 340.875 808.425781 340.648438 809.101562 339.824219 808.875 C 335.625 807.375 315.375 784.050781 305.773438 774.976562 C 298.949219 768.601562 294.976562 762.523438 288 759.074219 C 280.875 755.550781 271.648438 755.25 263.398438 754.273438 C 255.300781 753.300781 247.351562 753.226562 239.101562 753.300781 C 230.625 753.449219 222.898438 752.625 213.226562 755.101562 C 199.351562 758.625 176.773438 769.425781 165.226562 777.300781 C 157.5 782.550781 154.050781 788.550781 148.125 793.800781 C 142.125 799.125 136.425781 805.800781 129.375 808.875 C 122.476562 811.875 112.949219 811.351562 106.199219 812.023438 C 100.949219 812.476562 95.925781 812.773438 92.25 812.773438 C 90 812.773438 88.425781 812.773438 86.625 812.476562 C 84.75 812.101562 82.875 811.574219 81.148438 810.824219 C 79.425781 810 77.773438 809.023438 76.273438 807.898438 C 74.773438 806.699219 73.351562 805.351562 72.226562 803.851562 C 71.023438 802.425781 69.976562 800.699219 69.226562 799.050781 C 68.398438 797.324219 67.875 795.449219 67.5 793.574219 C 67.125 791.699219 66.976562 789.75 67.125 787.875 C 67.199219 786 67.574219 784.125 68.101562 782.324219 C 68.625 780.449219 69.449219 778.726562 70.425781 777.074219 C 71.398438 775.425781 72.601562 773.925781 73.875 772.574219 C 75.226562 771.226562 76.726562 770.023438 78.375 769.050781 C 79.949219 768.074219 81.75 767.25 83.550781 766.648438 C 85.351562 766.050781 89.175781 765.601562 89.175781 765.601562 " clip-rule="nonzero"/></clipPath></defs><g clip-path="url(#5f0f7e19a5)"><path fill="#000000" d="M 417.097656 868.222656 C 405.660156 868.222656 394.636719 869.894531 384.101562 872.785156 C 381.03125 806.839844 336.324219 747.25 269.347656 728.636719 C 228.960938 717.417969 186.601562 722.605469 150.054688 743.253906 C 113.519531 763.898438 87.21875 797.519531 75.988281 837.921875 C 52.800781 921.371094 101.820312 1008.105469 185.253906 1031.292969 C 199.265625 1035.179688 213.359375 1037.046875 227.25 1037.046875 C 251.195312 1037.046875 274.425781 1031.402344 295.410156 1021.265625 C 308.191406 1076.6875 357.835938 1118.183594 417.085938 1118.183594 C 486 1118.183594 542.0625 1062.125 542.0625 993.203125 C 542.0625 924.285156 486 868.222656 417.085938 868.222656 Z M 189.09375 1017.460938 C 152.390625 1007.265625 121.839844 983.355469 103.082031 950.15625 C 84.316406 916.941406 79.609375 878.441406 89.804688 841.738281 C 100 805.035156 123.910156 774.480469 157.109375 755.722656 C 178.847656 743.445312 202.851562 737.183594 227.121094 737.183594 C 239.941406 737.183594 252.832031 738.929688 265.507812 742.457031 C 302.210938 752.65625 332.761719 776.5625 351.515625 809.765625 C 363.410156 830.820312 369.621094 854.003906 369.996094 877.503906 C 324.371094 896.152344 292.121094 940.945312 292.121094 993.203125 C 292.121094 997.707031 292.386719 1002.136719 292.855469 1006.519531 C 260.714844 1023.203125 224.121094 1027.210938 189.09375 1017.460938 Z M 306.472656 993.203125 C 306.472656 949.335938 332.183594 911.476562 369.273438 893.585938 C 368.464844 901.820312 367.058594 910.042969 364.804688 918.167969 C 355.585938 951.347656 335.097656 979.40625 306.738281 998.355469 C 306.652344 996.632812 306.472656 994.9375 306.472656 993.203125 Z M 417.097656 1103.835938 C 363.265625 1103.835938 318.363281 1065.179688 308.53125 1014.1875 C 341.609375 994.179688 367.492188 962.109375 378.625 922.007812 C 381.816406 910.535156 383.511719 899.027344 384.066406 887.605469 C 394.503906 884.328125 405.601562 882.558594 417.097656 882.558594 C 478.105469 882.558594 527.734375 932.195312 527.734375 993.203125 C 527.734375 1054.214844 478.105469 1103.835938 417.097656 1103.835938 Z M 417.097656 1103.835938 " fill-opacity="1" fill-rule="nonzero"/></g><g clip-path="url(#55ac49f4da)"><path fill="#000000" d="M 247.03125 509.179688 C 383.117188 509.179688 493.824219 398.464844 493.824219 262.382812 C 493.824219 126.300781 383.117188 15.574219 247.03125 15.574219 C 110.945312 15.574219 0.234375 126.289062 0.234375 262.382812 C 0.234375 398.476562 110.945312 509.179688 247.03125 509.179688 Z M 247.03125 29.910156 C 375.207031 29.910156 479.488281 134.199219 479.488281 262.382812 C 479.488281 390.566406 375.207031 494.84375 247.03125 494.84375 C 118.851562 494.84375 14.570312 390.554688 14.570312 262.382812 C 14.570312 134.210938 118.851562 29.910156 247.03125 29.910156 Z M 247.03125 29.910156 " fill-opacity="1" fill-rule="nonzero"/></g><path fill="#000000" d="M 792.40625 544.464844 C 775 500.164062 741.417969 465.324219 697.839844 446.339844 C 654.265625 427.355469 605.882812 426.5 561.597656 443.894531 C 517.3125 461.304688 482.460938 494.890625 463.480469 538.46875 C 424.273438 628.492188 465.597656 733.621094 555.601562 772.832031 C 578.390625 782.761719 602.476562 787.734375 626.625 787.734375 C 648.652344 787.734375 670.730469 783.59375 691.855469 775.285156 C 736.144531 757.878906 770.992188 724.292969 789.964844 680.714844 C 808.949219 637.136719 809.8125 588.753906 792.40625 544.464844 Z M 776.820312 674.996094 C 759.363281 715.058594 727.332031 745.9375 686.609375 761.949219 C 645.886719 777.960938 601.40625 777.164062 561.320312 759.695312 C 478.5625 723.640625 440.570312 626.976562 476.613281 544.199219 C 494.066406 504.136719 526.109375 473.257812 566.835938 457.234375 C 586.273438 449.601562 606.570312 445.785156 626.828125 445.785156 C 649.027344 445.785156 671.175781 450.347656 692.109375 459.484375 C 732.171875 476.941406 763.058594 508.988281 779.058594 549.714844 C 795.066406 590.4375 794.261719 634.933594 776.808594 674.996094 Z M 776.820312 674.996094 " fill-opacity="1" fill-rule="nonzero"/><path fill="#000000" d="M 205.378906 466.347656 C 205.777344 466.421875 206.175781 466.445312 206.558594 466.445312 C 210.015625 466.445312 213.046875 463.953125 213.625 460.4375 C 214.273438 456.523438 211.613281 452.839844 207.714844 452.191406 C 158.878906 444.148438 116.058594 417.542969 87.195312 377.265625 C 58.316406 336.996094 46.832031 287.917969 54.871094 239.078125 C 55.523438 235.164062 52.863281 231.480469 48.960938 230.832031 C 45.050781 230.144531 41.355469 232.839844 40.714844 236.742188 C 32.050781 289.359375 44.410156 342.234375 75.527344 385.632812 C 106.648438 429.015625 152.761719 457.679688 205.378906 466.335938 Z M 205.378906 466.347656 " fill-opacity="1" fill-rule="nonzero"/><path fill="#000000" d="M 433.578125 226.171875 C 434.40625 234.464844 434.660156 242.882812 434.324219 251.1875 C 434.15625 255.136719 437.238281 258.484375 441.195312 258.640625 C 441.292969 258.640625 441.390625 258.640625 441.5 258.640625 C 445.3125 258.640625 448.492188 255.617188 448.648438 251.753906 C 449.007812 242.785156 448.746094 233.695312 447.84375 224.738281 C 447.457031 220.789062 443.773438 217.769531 439.992188 218.324219 C 436.058594 218.71875 433.179688 222.234375 433.578125 226.171875 Z M 433.578125 226.171875 " fill-opacity="1" fill-rule="nonzero"/><path fill="#000000" d="M 264.304688 66.964844 C 331.523438 69.660156 390.652344 109.425781 418.601562 170.773438 C 422.539062 179.402344 425.800781 188.433594 428.292969 197.59375 C 429.160156 200.78125 432.046875 202.890625 435.214844 202.890625 C 435.828125 202.890625 436.464844 202.816406 437.09375 202.636719 C 440.910156 201.601562 443.171875 197.664062 442.136719 193.835938 C 439.453125 183.917969 435.925781 174.152344 431.664062 164.8125 C 401.460938 98.542969 337.554688 55.554688 264.894531 52.640625 C 261.304688 52.265625 257.609375 55.554688 257.441406 59.511719 C 257.273438 63.472656 260.367188 66.808594 264.316406 66.964844 Z M 264.304688 66.964844 " fill-opacity="1" fill-rule="nonzero"/><path fill="#000000" d="M 742.789062 674.441406 C 739.40625 672.382812 735 673.441406 732.929688 676.824219 C 729.714844 682.074219 726.128906 687.152344 722.226562 691.945312 C 719.738281 695.015625 720.207031 699.542969 723.277344 702.035156 C 724.601562 703.117188 726.199219 703.632812 727.789062 703.632812 C 729.871094 703.632812 731.941406 702.730469 733.363281 700.984375 C 737.636719 695.703125 741.609375 690.089844 745.160156 684.300781 C 747.21875 680.929688 746.160156 676.511719 742.777344 674.441406 Z M 742.789062 674.441406 " fill-opacity="1" fill-rule="nonzero"/><path fill="#000000" d="M 717.363281 500.765625 C 714.296875 498.273438 709.78125 498.730469 707.289062 501.800781 C 704.796875 504.871094 705.253906 509.382812 708.324219 511.875 C 744.894531 541.597656 760.53125 589.8125 749.109375 637.6875 C 747.484375 644.476562 745.316406 651.195312 742.65625 657.660156 C 741.152344 661.320312 742.886719 665.507812 746.542969 667.027344 C 747.433594 667.386719 748.363281 667.566406 749.277344 667.566406 C 752.09375 667.566406 754.765625 665.894531 755.910156 663.136719 C 758.859375 655.976562 761.265625 648.535156 763.058594 641.023438 C 775.761719 587.730469 758.246094 533.980469 717.363281 500.753906 Z M 717.363281 500.765625 " fill-opacity="1" fill-rule="nonzero"/><g clip-path="url(#42d437aece)"><g clip-path="url(#13b9913a77)"><path fill="#b9e5ff" d="M 64.125 697.425781 L 395.996094 697.425781 L 395.996094 825.375 L 64.125 825.375 Z M 64.125 697.425781 " fill-opacity="1" fill-rule="nonzero"/></g></g></svg>