<svg xmlns="http://www.w3.org/2000/svg" xmlns:xlink="http://www.w3.org/1999/xlink" width="1080" zoomAndPan="magnify" viewBox="0 0 810 809.999993" height="1080" preserveAspectRatio="xMidYMid meet" version="1.0"><defs><clipPath id="7ce6448f73"><path d="M 3.652344 373 L 531 373 L 531 433 L 3.652344 433 Z M 3.652344 373 " clip-rule="nonzero"/></clipPath><clipPath id="daa4262446"><path d="M 153 61.300781 L 805 61.300781 L 805 746 L 153 746 Z M 153 61.300781 " clip-rule="nonzero"/></clipPath><clipPath id="1804883194"><path d="M 3.652344 403 L 531 403 L 531 433 L 3.652344 433 Z M 3.652344 403 " clip-rule="nonzero"/></clipPath></defs><g clip-path="url(#7ce6448f73)"><path fill="#000000" d="M 1.695312 403.042969 C 1.695312 386.824219 14.84375 373.675781 31.0625 373.675781 L 500.925781 373.675781 C 517.144531 373.675781 530.292969 386.824219 530.292969 403.042969 C 530.292969 419.261719 517.144531 432.410156 500.925781 432.410156 L 31.0625 432.410156 C 14.84375 432.410156 1.695312 419.261719 1.695312 403.042969 Z M 1.695312 403.042969 " fill-opacity="1" fill-rule="evenodd"/></g><path fill="#000000" d="M 343.117188 245.230469 C 354.585938 233.765625 373.179688 233.765625 384.648438 245.230469 L 521.691406 382.277344 C 533.160156 393.746094 533.160156 412.335938 521.691406 423.804688 L 384.648438 560.851562 C 373.179688 572.320312 354.585938 572.320312 343.117188 560.851562 C 331.648438 549.382812 331.648438 530.789062 343.117188 519.320312 L 459.394531 403.042969 L 343.117188 286.761719 C 331.648438 275.292969 331.648438 256.699219 343.117188 245.230469 Z M 343.117188 245.230469 " fill-opacity="1" fill-rule="evenodd"/><g clip-path="url(#daa4262446)"><path fill="#000000" d="M 461.769531 119.164062 C 351.546875 119.164062 255.945312 181.976562 208.898438 273.898438 C 201.507812 288.335938 183.8125 294.046875 169.375 286.660156 C 154.9375 279.269531 149.226562 261.574219 156.613281 247.136719 C 213.316406 136.359375 328.652344 60.429688 461.769531 60.429688 C 650.992188 60.429688 804.382812 213.824219 804.382812 403.042969 C 804.382812 592.261719 650.992188 745.652344 461.769531 745.652344 C 328.652344 745.652344 213.316406 669.722656 156.613281 558.945312 C 149.226562 544.507812 154.9375 526.8125 169.375 519.421875 C 183.8125 512.035156 201.507812 517.746094 208.898438 532.183594 C 255.945312 624.105469 351.546875 686.917969 461.769531 686.917969 C 618.554688 686.917969 745.648438 559.824219 745.648438 403.042969 C 745.648438 246.261719 618.554688 119.164062 461.769531 119.164062 Z M 461.769531 119.164062 " fill-opacity="1" fill-rule="evenodd"/></g><g clip-path="url(#1804883194)"><path fill="#000000" d="M 530.292969 403.042969 L 1.695312 403.042969 C 1.695312 419.261719 14.84375 432.410156 31.0625 432.410156 L 500.925781 432.410156 C 517.144531 432.410156 530.292969 419.261719 530.292969 403.042969 Z M 530.292969 403.042969 " fill-opacity="1" fill-rule="evenodd"/></g><path fill="#000000" d="M 530.292969 403.042969 C 530.292969 410.554688 527.425781 418.074219 521.691406 423.804688 L 384.648438 560.851562 C 373.179688 572.320312 354.585938 572.320312 343.117188 560.851562 C 331.648438 549.382812 331.648438 530.789062 343.117188 519.320312 L 459.394531 403.042969 Z M 530.292969 403.042969 " fill-opacity="1" fill-rule="evenodd"/><path fill="#000000" d="M 804.382812 403.042969 L 745.648438 403.042969 C 745.648438 559.824219 618.554688 686.917969 461.769531 686.917969 C 351.546875 686.917969 255.945312 624.105469 208.898438 532.183594 C 201.507812 517.746094 183.8125 512.035156 169.375 519.421875 C 154.9375 526.8125 149.226562 544.507812 156.613281 558.945312 C 213.316406 669.722656 328.652344 745.652344 461.769531 745.652344 C 650.992188 745.652344 804.382812 592.261719 804.382812 403.042969 Z M 804.382812 403.042969 " fill-opacity="1" fill-rule="evenodd"/></svg>